<svg width="34" height="34" viewBox="0 0 34 34" fill="none" xmlns="http://www.w3.org/2000/svg">
<rect x="0.5" y="0.5" width="33" height="33" rx="7.5" fill="#060B27"/>
<rect x="0.5" y="0.5" width="33" height="33" rx="7.5" stroke="#282D45"/>
<path d="M19.56 17C19.56 17.5063 19.4099 18.0013 19.1286 18.4223C18.8473 18.8432 18.4474 19.1714 17.9797 19.3651C17.5119 19.5589 16.9972 19.6096 16.5006 19.5108C16.004 19.412 15.5478 19.1682 15.1898 18.8102C14.8318 18.4522 14.588 17.996 14.4892 17.4994C14.3904 17.0028 14.4411 16.4881 14.6349 16.0203C14.8286 15.5526 15.1568 15.1527 15.5777 14.8714C15.9987 14.5901 16.4937 14.44 17 14.44C17.6783 14.4421 18.3282 14.7125 18.8079 15.1921C19.2875 15.6718 19.5579 16.3217 19.56 17ZM25 13.48V20.52C25 21.7082 24.528 22.8477 23.6878 23.6878C22.8477 24.528 21.7082 25 20.52 25H13.48C12.2918 25 11.1523 24.528 10.3122 23.6878C9.472 22.8477 9 21.7082 9 20.52V13.48C9 12.2918 9.472 11.1523 10.3122 10.3122C11.1523 9.472 12.2918 9 13.48 9H20.52C21.7082 9 22.8477 9.472 23.6878 10.3122C24.528 11.1523 25 12.2918 25 13.48ZM20.84 17C20.84 16.2405 20.6148 15.4981 20.1928 14.8666C19.7709 14.2351 19.1712 13.7429 18.4695 13.4523C17.7678 13.1617 16.9957 13.0856 16.2509 13.2338C15.506 13.382 14.8217 13.7477 14.2847 14.2847C13.7477 14.8217 13.382 15.506 13.2338 16.2509C13.0856 16.9957 13.1617 17.7678 13.4523 18.4695C13.7429 19.1712 14.2351 19.7709 14.8666 20.1928C15.4981 20.6148 16.2405 20.84 17 20.84C18.0184 20.84 18.9952 20.4354 19.7153 19.7153C20.4354 18.9952 20.84 18.0184 20.84 17ZM22.12 12.84C22.12 12.6501 22.0637 12.4645 21.9582 12.3067C21.8527 12.1488 21.7028 12.0257 21.5274 11.9531C21.352 11.8804 21.1589 11.8614 20.9727 11.8984C20.7865 11.9355 20.6154 12.0269 20.4812 12.1612C20.3469 12.2954 20.2555 12.4665 20.2184 12.6527C20.1814 12.8389 20.2004 13.032 20.2731 13.2074C20.3457 13.3828 20.4688 13.5327 20.6267 13.6382C20.7845 13.7437 20.9701 13.8 21.16 13.8C21.4146 13.8 21.6588 13.6989 21.8388 13.5188C22.0189 13.3388 22.12 13.0946 22.12 12.84Z" fill="#8F9BB7"/>
</svg>
