<svg width="34" height="34" viewBox="0 0 34 34" fill="none" xmlns="http://www.w3.org/2000/svg">
<rect x="0.5" y="0.5" width="33" height="33" rx="7.5" fill="#060B27"/>
<rect x="0.5" y="0.5" width="33" height="33" rx="7.5" stroke="#282D45"/>
<path d="M12.5677 10.7786C12.5674 11.25 12.3793 11.7021 12.0446 12.0353C11.7099 12.3685 11.2561 12.5556 10.7829 12.5554C10.3098 12.5551 9.85621 12.3676 9.52184 12.0341C9.18748 11.7005 8.99976 11.2483 9 10.7768C9.00024 10.3053 9.1884 9.85325 9.52311 9.52004C9.85781 9.18683 10.3116 8.99976 10.7847 9C11.2578 9.00024 11.7115 9.18775 12.0458 9.5213C12.3802 9.85484 12.5679 10.3071 12.5677 10.7786ZM12.6212 13.8717H9.05352V25H12.6212V13.8717ZM18.2581 13.8717H14.7083V25H18.2225V19.1603C18.2225 15.9072 22.4769 15.605 22.4769 19.1603V25H26V17.9515C26 12.4674 19.703 12.6718 18.2225 15.365L18.2581 13.8717Z" fill="#8F9BB7"/>
</svg>
