<svg width="231" height="40" viewBox="0 0 231 40" fill="none" xmlns="http://www.w3.org/2000/svg">
<path d="M9.32 30.5L0.6 1.26H5.92L10.56 16.7C11 18.3 11.44 19.94 11.88 22.5C12.36 19.9 12.8 18.38 13.32 16.7L17.92 1.26H23.56L28.08 16.7C28.56 18.34 29 20.02 29.48 22.5C30.04 19.78 30.44 18.22 30.88 16.74L35.6 1.26H40.8L31.92 30.5H26.96L20.72 9.22L14.36 30.5H9.32Z" fill="black"/>
<path d="M42.8022 30.5H37.4822L48.0422 1.26H53.2822L63.8422 30.5H58.4422L56.0822 23.74H45.1622L42.8022 30.5ZM50.0022 9.98L46.6822 19.42H54.6022L51.2422 9.98C51.0022 9.22 50.7222 8.34 50.6422 7.74C50.5222 8.3 50.2822 9.18 50.0022 9.98ZM65.5887 39.66V10.74H70.1087L70.4287 13.74C71.6287 11.46 74.2287 10.14 77.2287 10.14C82.7887 10.14 86.4688 14.18 86.4688 20.38C86.4688 26.54 83.1088 31.02 77.2287 31.02C74.2687 31.02 71.7087 29.86 70.4687 27.86V39.66H65.5887ZM70.5087 20.62C70.5087 24.18 72.7087 26.62 76.0687 26.62C79.5087 26.62 81.5487 24.14 81.5487 20.62C81.5487 17.1 79.5087 14.58 76.0687 14.58C72.7087 14.58 70.5087 17.06 70.5087 20.62ZM89.1544 39.66V10.74H93.6744L93.9944 13.74C95.1944 11.46 97.7944 10.14 100.794 10.14C106.354 10.14 110.034 14.18 110.034 20.38C110.034 26.54 106.674 31.02 100.794 31.02C97.8344 31.02 95.2744 29.86 94.0344 27.86V39.66H89.1544ZM94.0744 20.62C94.0744 24.18 96.2744 26.62 99.6344 26.62C103.074 26.62 105.114 24.14 105.114 20.62C105.114 17.1 103.074 14.58 99.6344 14.58C96.2744 14.58 94.0744 17.06 94.0744 20.62ZM125.12 10.66V15.18H123.32C119.8 15.18 117.6 17.06 117.6 20.9V30.5H112.72V10.78H117.32L117.6 13.66C118.44 11.7 120.32 10.38 122.96 10.38C123.64 10.38 124.32 10.46 125.12 10.66ZM135.399 31.02C129.519 31.02 125.399 26.74 125.399 20.62C125.399 14.42 129.439 10.14 135.239 10.14C141.159 10.14 144.919 14.1 144.919 20.26V21.74L130.039 21.78C130.399 25.26 132.239 27.02 135.479 27.02C138.159 27.02 139.919 25.98 140.479 24.1H144.999C144.159 28.42 140.559 31.02 135.399 31.02ZM135.279 14.14C132.399 14.14 130.639 15.7 130.159 18.66H140.079C140.079 15.94 138.199 14.14 135.279 14.14ZM152.505 30.5H147.625V10.74H152.145L152.545 13.3C153.785 11.3 156.185 10.14 158.865 10.14C163.825 10.14 166.385 13.22 166.385 18.34V30.5H161.505V19.5C161.505 16.18 159.865 14.58 157.345 14.58C154.345 14.58 152.505 16.66 152.505 19.86V30.5ZM176.699 30.5H171.819V14.82H168.019V10.74H171.819V4.58H176.699V10.74H180.539V14.82H176.699V30.5ZM184.813 6.78C183.133 6.78 181.813 5.46 181.813 3.82C181.813 2.18 183.133 0.9 184.813 0.9C186.413 0.9 187.733 2.18 187.733 3.82C187.733 5.46 186.413 6.78 184.813 6.78ZM182.373 30.5V10.74H187.253V30.5H182.373ZM189.935 20.58C189.935 14.46 193.975 10.14 199.815 10.14C205.215 10.14 208.895 13.14 209.415 17.9H204.535C203.975 15.66 202.335 14.5 200.015 14.5C196.895 14.5 194.815 16.86 194.815 20.58C194.815 24.3 196.735 26.62 199.855 26.62C202.295 26.62 204.015 25.42 204.535 23.26H209.455C208.855 27.86 205.015 31.02 199.855 31.02C193.855 31.02 189.935 26.86 189.935 20.58ZM220.727 31.02C214.847 31.02 210.727 26.74 210.727 20.62C210.727 14.42 214.767 10.14 220.567 10.14C226.487 10.14 230.247 14.1 230.247 20.26V21.74L215.367 21.78C215.727 25.26 217.567 27.02 220.807 27.02C223.487 27.02 225.247 25.98 225.807 24.1H230.327C229.487 28.42 225.887 31.02 220.727 31.02ZM220.607 14.14C217.727 14.14 215.967 15.7 215.487 18.66H225.407C225.407 15.94 223.527 14.14 220.607 14.14Z" fill="#5865F2"/>
</svg>
