<svg width="526" height="297" viewBox="0 0 526 297" fill="none" xmlns="http://www.w3.org/2000/svg">
<g clip-path="url(#clip0_2316_533)">
<rect y="0.5" width="526" height="296" rx="20" fill="white"/>
<path d="M49.5 68.64C49.26 68.64 49.0667 68.5867 48.92 68.48C48.7867 68.3733 48.7067 68.2267 48.68 68.04C48.6533 67.8533 48.6933 67.6467 48.8 67.42L54.26 55.06C54.38 54.78 54.5333 54.58 54.72 54.46C54.9067 54.3267 55.1133 54.26 55.34 54.26C55.5667 54.26 55.7667 54.3267 55.94 54.46C56.1267 54.58 56.2867 54.78 56.42 55.06L61.88 67.42C61.9867 67.6467 62.0267 67.86 62 68.06C61.9867 68.2467 61.9133 68.3933 61.78 68.5C61.6467 68.5933 61.46 68.64 61.22 68.64C60.9533 68.64 60.74 68.5733 60.58 68.44C60.42 68.2933 60.28 68.0867 60.16 67.82L58.74 64.5L59.6 64.98H51.04L51.9 64.5L50.48 67.82C50.36 68.1133 50.2267 68.3267 50.08 68.46C49.9333 68.58 49.74 68.64 49.5 68.64ZM55.3 56.5L52.18 63.88L51.7 63.46H58.94L58.48 63.88L55.34 56.5H55.3ZM66.8811 68.64C66.6278 68.64 66.4078 68.5733 66.2211 68.44C66.0344 68.3067 65.8744 68.0933 65.7411 67.8L62.3411 59.88C62.2478 59.6533 62.2144 59.4467 62.2411 59.26C62.2678 59.0733 62.3544 58.92 62.5011 58.8C62.6611 58.68 62.8744 58.62 63.1411 58.62C63.3678 58.62 63.5478 58.6733 63.6811 58.78C63.8144 58.8867 63.9411 59.0733 64.0611 59.34L67.2011 67.08H66.6411L69.8611 59.34C69.9678 59.0733 70.0878 58.8867 70.2211 58.78C70.3678 58.6733 70.5678 58.62 70.8211 58.62C71.0478 58.62 71.2211 58.68 71.3411 58.8C71.4744 58.92 71.5544 59.0733 71.5811 59.26C71.6078 59.4467 71.5678 59.6467 71.4611 59.86L68.0411 67.8C67.9211 68.0933 67.7611 68.3067 67.5611 68.44C67.3744 68.5733 67.1478 68.64 66.8811 68.64ZM77.4764 68.68C76.4231 68.68 75.5164 68.48 74.7564 68.08C74.0097 67.6667 73.4297 67.0867 73.0164 66.34C72.6031 65.58 72.3964 64.6867 72.3964 63.66C72.3964 62.6467 72.5964 61.76 72.9964 61C73.4097 60.24 73.9697 59.6467 74.6764 59.22C75.3964 58.7933 76.2164 58.58 77.1364 58.58C77.7897 58.58 78.3764 58.6933 78.8964 58.92C79.4297 59.1333 79.8831 59.4467 80.2564 59.86C80.6297 60.2733 80.9097 60.78 81.0964 61.38C81.2964 61.9667 81.3964 62.6333 81.3964 63.38C81.3964 63.5933 81.3297 63.76 81.1964 63.88C81.0764 63.9867 80.8964 64.04 80.6564 64.04H73.8164V62.88H80.1964L79.8564 63.16C79.8564 62.4667 79.7497 61.88 79.5364 61.4C79.3364 60.9067 79.0364 60.5333 78.6364 60.28C78.2497 60.0267 77.7631 59.9 77.1764 59.9C76.5364 59.9 75.9897 60.0533 75.5364 60.36C75.0831 60.6533 74.7364 61.0733 74.4964 61.62C74.2564 62.1533 74.1364 62.7733 74.1364 63.48V63.6C74.1364 64.8 74.4231 65.7067 74.9964 66.32C75.5697 66.9333 76.3964 67.24 77.4764 67.24C77.9031 67.24 78.3364 67.1867 78.7764 67.08C79.2297 66.9733 79.6631 66.78 80.0764 66.5C80.2764 66.38 80.4564 66.3267 80.6164 66.34C80.7897 66.34 80.9297 66.3933 81.0364 66.5C81.1431 66.5933 81.2097 66.7133 81.2364 66.86C81.2631 66.9933 81.2431 67.14 81.1764 67.3C81.1097 67.46 80.9831 67.6 80.7964 67.72C80.3564 68.0267 79.8297 68.2667 79.2164 68.44C78.6164 68.6 78.0364 68.68 77.4764 68.68ZM84.2 68.64C83.8933 68.64 83.66 68.56 83.5 68.4C83.34 68.24 83.26 68.0067 83.26 67.7V59.54C83.26 59.2333 83.34 59.0067 83.5 58.86C83.66 58.7 83.88 58.62 84.16 58.62C84.44 58.62 84.6533 58.7 84.8 58.86C84.96 59.0067 85.04 59.2333 85.04 59.54V61.08H84.84C85.0533 60.28 85.4533 59.6733 86.04 59.26C86.6267 58.8467 87.3667 58.6133 88.26 58.56C88.4733 58.5467 88.6467 58.6 88.78 58.72C88.9133 58.8267 88.9867 59.0133 89 59.28C89.0133 59.5333 88.9533 59.74 88.82 59.9C88.6867 60.0467 88.48 60.1333 88.2 60.16L87.84 60.18C86.96 60.2733 86.28 60.56 85.8 61.04C85.3333 61.52 85.1 62.18 85.1 63.02V67.7C85.1 68.0067 85.02 68.24 84.86 68.4C84.7133 68.56 84.4933 68.64 84.2 68.64ZM93.167 68.68C92.5004 68.68 91.8937 68.5467 91.347 68.28C90.8137 68.0133 90.3937 67.6533 90.087 67.2C89.7937 66.7467 89.647 66.24 89.647 65.68C89.647 64.96 89.827 64.3933 90.187 63.98C90.547 63.5667 91.1537 63.2733 92.007 63.1C92.8604 62.9133 94.007 62.82 95.447 62.82H96.387V63.98H95.487C94.4604 63.98 93.647 64.0267 93.047 64.12C92.4604 64.2133 92.047 64.38 91.807 64.62C91.567 64.8467 91.447 65.1667 91.447 65.58C91.447 66.1 91.627 66.5267 91.987 66.86C92.3604 67.1933 92.867 67.36 93.507 67.36C94.0137 67.36 94.4604 67.24 94.847 67C95.2337 66.7467 95.5404 66.4133 95.767 66C95.9937 65.5733 96.107 65.0867 96.107 64.54V62.24C96.107 61.4533 95.947 60.8867 95.627 60.54C95.307 60.18 94.767 60 94.007 60C93.567 60 93.1137 60.06 92.647 60.18C92.1804 60.3 91.6937 60.4867 91.187 60.74C90.987 60.8333 90.8137 60.8667 90.667 60.84C90.5204 60.8 90.4004 60.72 90.307 60.6C90.227 60.4667 90.1804 60.3267 90.167 60.18C90.167 60.02 90.2004 59.8667 90.267 59.72C90.347 59.5733 90.4804 59.4667 90.667 59.4C91.2537 59.1067 91.8337 58.9 92.407 58.78C92.9937 58.6467 93.5404 58.58 94.047 58.58C94.9137 58.58 95.627 58.72 96.187 59C96.747 59.2667 97.167 59.6867 97.447 60.26C97.727 60.82 97.867 61.54 97.867 62.42V67.7C97.867 68.0067 97.7937 68.24 97.647 68.4C97.5004 68.56 97.287 68.64 97.007 68.64C96.7404 68.64 96.527 68.56 96.367 68.4C96.2204 68.24 96.147 68.0067 96.147 67.7V66.28H96.327C96.2204 66.7733 96.0204 67.2 95.727 67.56C95.4337 67.92 95.067 68.2 94.627 68.4C94.2004 68.5867 93.7137 68.68 93.167 68.68ZM104.711 72.28C103.991 72.28 103.291 72.2 102.611 72.04C101.944 71.88 101.338 71.6333 100.791 71.3C100.618 71.1933 100.498 71.0667 100.431 70.92C100.378 70.7867 100.364 70.6467 100.391 70.5C100.431 70.3533 100.498 70.22 100.591 70.1C100.698 69.9933 100.818 69.92 100.951 69.88C101.098 69.8533 101.244 69.8867 101.391 69.98C101.978 70.3133 102.538 70.54 103.071 70.66C103.604 70.78 104.111 70.84 104.591 70.84C105.538 70.84 106.244 70.5933 106.711 70.1C107.191 69.62 107.431 68.9133 107.431 67.98V65.82H107.611C107.424 66.5667 107.004 67.16 106.351 67.6C105.711 68.04 104.964 68.26 104.111 68.26C103.231 68.26 102.464 68.06 101.811 67.66C101.158 67.2467 100.651 66.68 100.291 65.96C99.9311 65.2267 99.7511 64.38 99.7511 63.42C99.7511 62.6867 99.8511 62.0267 100.051 61.44C100.264 60.84 100.558 60.3333 100.931 59.92C101.318 59.4933 101.778 59.1667 102.311 58.94C102.844 58.7 103.444 58.58 104.111 58.58C104.978 58.58 105.731 58.8 106.371 59.24C107.011 59.68 107.424 60.2733 107.611 61.02L107.391 61.3V59.54C107.391 59.2333 107.471 59.0067 107.631 58.86C107.791 58.7 108.018 58.62 108.311 58.62C108.591 58.62 108.811 58.7 108.971 58.86C109.131 59.0067 109.211 59.2333 109.211 59.54V67.74C109.211 69.2467 108.824 70.38 108.051 71.14C107.291 71.9 106.178 72.28 104.711 72.28ZM104.511 66.82C105.111 66.82 105.624 66.6867 106.051 66.42C106.491 66.14 106.824 65.7467 107.051 65.24C107.291 64.72 107.411 64.1133 107.411 63.42C107.411 62.3667 107.151 61.54 106.631 60.94C106.111 60.3267 105.404 60.02 104.511 60.02C103.911 60.02 103.391 60.16 102.951 60.44C102.524 60.7067 102.191 61.0933 101.951 61.6C101.711 62.1067 101.591 62.7133 101.591 63.42C101.591 64.46 101.851 65.2867 102.371 65.9C102.904 66.5133 103.618 66.82 104.511 66.82ZM116.228 68.68C115.175 68.68 114.268 68.48 113.508 68.08C112.761 67.6667 112.181 67.0867 111.768 66.34C111.355 65.58 111.148 64.6867 111.148 63.66C111.148 62.6467 111.348 61.76 111.748 61C112.161 60.24 112.721 59.6467 113.428 59.22C114.148 58.7933 114.968 58.58 115.888 58.58C116.541 58.58 117.128 58.6933 117.648 58.92C118.181 59.1333 118.635 59.4467 119.008 59.86C119.381 60.2733 119.661 60.78 119.848 61.38C120.048 61.9667 120.148 62.6333 120.148 63.38C120.148 63.5933 120.081 63.76 119.948 63.88C119.828 63.9867 119.648 64.04 119.408 64.04H112.568V62.88H118.948L118.608 63.16C118.608 62.4667 118.501 61.88 118.288 61.4C118.088 60.9067 117.788 60.5333 117.388 60.28C117.001 60.0267 116.515 59.9 115.928 59.9C115.288 59.9 114.741 60.0533 114.288 60.36C113.835 60.6533 113.488 61.0733 113.248 61.62C113.008 62.1533 112.888 62.7733 112.888 63.48V63.6C112.888 64.8 113.175 65.7067 113.748 66.32C114.321 66.9333 115.148 67.24 116.228 67.24C116.655 67.24 117.088 67.1867 117.528 67.08C117.981 66.9733 118.415 66.78 118.828 66.5C119.028 66.38 119.208 66.3267 119.368 66.34C119.541 66.34 119.681 66.3933 119.788 66.5C119.895 66.5933 119.961 66.7133 119.988 66.86C120.015 66.9933 119.995 67.14 119.928 67.3C119.861 67.46 119.735 67.6 119.548 67.72C119.108 68.0267 118.581 68.2667 117.968 68.44C117.368 68.6 116.788 68.68 116.228 68.68ZM126.866 68.64C126.626 68.64 126.433 68.5867 126.286 68.48C126.153 68.3733 126.073 68.2267 126.046 68.04C126.02 67.8533 126.06 67.6467 126.166 67.42L131.626 55.06C131.746 54.78 131.9 54.58 132.086 54.46C132.273 54.3267 132.48 54.26 132.706 54.26C132.933 54.26 133.133 54.3267 133.306 54.46C133.493 54.58 133.653 54.78 133.786 55.06L139.246 67.42C139.353 67.6467 139.393 67.86 139.366 68.06C139.353 68.2467 139.28 68.3933 139.146 68.5C139.013 68.5933 138.826 68.64 138.586 68.64C138.32 68.64 138.106 68.5733 137.946 68.44C137.786 68.2933 137.646 68.0867 137.526 67.82L136.106 64.5L136.966 64.98H128.406L129.266 64.5L127.846 67.82C127.726 68.1133 127.593 68.3267 127.446 68.46C127.3 68.58 127.106 68.64 126.866 68.64ZM132.666 56.5L129.546 63.88L129.066 63.46H136.306L135.846 63.88L132.706 56.5H132.666ZM141.994 72.24C141.714 72.24 141.494 72.16 141.334 72C141.174 71.84 141.094 71.6133 141.094 71.32V59.54C141.094 59.2333 141.174 59.0067 141.334 58.86C141.494 58.7 141.714 58.62 141.994 58.62C142.288 58.62 142.508 58.7 142.654 58.86C142.814 59.0067 142.894 59.2333 142.894 59.54V61.36L142.674 61C142.888 60.2667 143.308 59.68 143.934 59.24C144.561 58.8 145.314 58.58 146.194 58.58C147.061 58.58 147.814 58.7867 148.454 59.2C149.094 59.6 149.594 60.18 149.954 60.94C150.314 61.6867 150.494 62.58 150.494 63.62C150.494 64.6467 150.314 65.5467 149.954 66.32C149.608 67.08 149.108 67.6667 148.454 68.08C147.814 68.48 147.061 68.68 146.194 68.68C145.328 68.68 144.581 68.46 143.954 68.02C143.328 67.58 142.908 67 142.694 66.28H142.914V71.32C142.914 71.6133 142.834 71.84 142.674 72C142.514 72.16 142.288 72.24 141.994 72.24ZM145.774 67.24C146.348 67.24 146.848 67.1 147.274 66.82C147.714 66.54 148.054 66.1333 148.294 65.6C148.534 65.0667 148.654 64.4067 148.654 63.62C148.654 62.4467 148.394 61.5533 147.874 60.94C147.354 60.3267 146.654 60.02 145.774 60.02C145.188 60.02 144.674 60.16 144.234 60.44C143.808 60.7067 143.474 61.1067 143.234 61.64C143.008 62.1733 142.894 62.8333 142.894 63.62C142.894 64.7933 143.154 65.6933 143.674 66.32C144.194 66.9333 144.894 67.24 145.774 67.24ZM153.333 72.24C153.053 72.24 152.833 72.16 152.673 72C152.513 71.84 152.433 71.6133 152.433 71.32V59.54C152.433 59.2333 152.513 59.0067 152.673 58.86C152.833 58.7 153.053 58.62 153.333 58.62C153.626 58.62 153.846 58.7 153.993 58.86C154.153 59.0067 154.233 59.2333 154.233 59.54V61.36L154.013 61C154.226 60.2667 154.646 59.68 155.273 59.24C155.899 58.8 156.653 58.58 157.533 58.58C158.399 58.58 159.153 58.7867 159.793 59.2C160.433 59.6 160.933 60.18 161.293 60.94C161.653 61.6867 161.833 62.58 161.833 63.62C161.833 64.6467 161.653 65.5467 161.293 66.32C160.946 67.08 160.446 67.6667 159.793 68.08C159.153 68.48 158.399 68.68 157.533 68.68C156.666 68.68 155.919 68.46 155.293 68.02C154.666 67.58 154.246 67 154.033 66.28H154.253V71.32C154.253 71.6133 154.173 71.84 154.013 72C153.853 72.16 153.626 72.24 153.333 72.24ZM157.113 67.24C157.686 67.24 158.186 67.1 158.613 66.82C159.053 66.54 159.393 66.1333 159.633 65.6C159.873 65.0667 159.993 64.4067 159.993 63.62C159.993 62.4467 159.733 61.5533 159.213 60.94C158.693 60.3267 157.993 60.02 157.113 60.02C156.526 60.02 156.013 60.16 155.573 60.44C155.146 60.7067 154.813 61.1067 154.573 61.64C154.346 62.1733 154.233 62.8333 154.233 63.62C154.233 64.7933 154.493 65.6933 155.013 66.32C155.533 66.9333 156.233 67.24 157.113 67.24ZM164.711 68.64C164.404 68.64 164.171 68.56 164.011 68.4C163.851 68.24 163.771 68.0067 163.771 67.7V59.54C163.771 59.2333 163.851 59.0067 164.011 58.86C164.171 58.7 164.391 58.62 164.671 58.62C164.951 58.62 165.164 58.7 165.311 58.86C165.471 59.0067 165.551 59.2333 165.551 59.54V61.08H165.351C165.564 60.28 165.964 59.6733 166.551 59.26C167.138 58.8467 167.878 58.6133 168.771 58.56C168.984 58.5467 169.158 58.6 169.291 58.72C169.424 58.8267 169.498 59.0133 169.511 59.28C169.524 59.5333 169.464 59.74 169.331 59.9C169.198 60.0467 168.991 60.1333 168.711 60.16L168.351 60.18C167.471 60.2733 166.791 60.56 166.311 61.04C165.844 61.52 165.611 62.18 165.611 63.02V67.7C165.611 68.0067 165.531 68.24 165.371 68.4C165.224 68.56 165.004 68.64 164.711 68.64ZM175.039 68.68C173.986 68.68 173.079 68.48 172.319 68.08C171.572 67.6667 170.992 67.0867 170.579 66.34C170.166 65.58 169.959 64.6867 169.959 63.66C169.959 62.6467 170.159 61.76 170.559 61C170.972 60.24 171.532 59.6467 172.239 59.22C172.959 58.7933 173.779 58.58 174.699 58.58C175.352 58.58 175.939 58.6933 176.459 58.92C176.992 59.1333 177.446 59.4467 177.819 59.86C178.192 60.2733 178.472 60.78 178.659 61.38C178.859 61.9667 178.959 62.6333 178.959 63.38C178.959 63.5933 178.892 63.76 178.759 63.88C178.639 63.9867 178.459 64.04 178.219 64.04H171.379V62.88H177.759L177.419 63.16C177.419 62.4667 177.312 61.88 177.099 61.4C176.899 60.9067 176.599 60.5333 176.199 60.28C175.812 60.0267 175.326 59.9 174.739 59.9C174.099 59.9 173.552 60.0533 173.099 60.36C172.646 60.6533 172.299 61.0733 172.059 61.62C171.819 62.1533 171.699 62.7733 171.699 63.48V63.6C171.699 64.8 171.986 65.7067 172.559 66.32C173.132 66.9333 173.959 67.24 175.039 67.24C175.466 67.24 175.899 67.1867 176.339 67.08C176.792 66.9733 177.226 66.78 177.639 66.5C177.839 66.38 178.019 66.3267 178.179 66.34C178.352 66.34 178.492 66.3933 178.599 66.5C178.706 66.5933 178.772 66.7133 178.799 66.86C178.826 66.9933 178.806 67.14 178.739 67.3C178.672 67.46 178.546 67.6 178.359 67.72C177.919 68.0267 177.392 68.2667 176.779 68.44C176.179 68.6 175.599 68.68 175.039 68.68ZM181.723 68.64C181.443 68.64 181.223 68.56 181.063 68.4C180.903 68.24 180.823 68.0067 180.823 67.7V59.54C180.823 59.2333 180.903 59.0067 181.063 58.86C181.223 58.7 181.443 58.62 181.723 58.62C182.003 58.62 182.216 58.7 182.363 58.86C182.523 59.0067 182.603 59.2333 182.603 59.54V61.18L182.383 60.88C182.663 60.12 183.116 59.5467 183.743 59.16C184.383 58.7733 185.109 58.58 185.923 58.58C186.709 58.58 187.356 58.72 187.863 59C188.369 59.28 188.749 59.7067 189.003 60.28C189.256 60.8533 189.383 61.58 189.383 62.46V67.7C189.383 68.0067 189.303 68.24 189.143 68.4C188.996 68.56 188.776 68.64 188.483 68.64C188.189 68.64 187.963 68.56 187.803 68.4C187.643 68.24 187.563 68.0067 187.563 67.7V62.56C187.563 61.6933 187.396 61.06 187.063 60.66C186.729 60.26 186.196 60.06 185.463 60.06C184.609 60.06 183.923 60.3267 183.403 60.86C182.896 61.38 182.643 62.0867 182.643 62.98V67.7C182.643 68.3267 182.336 68.64 181.723 68.64ZM195.908 68.68C195.121 68.68 194.461 68.54 193.928 68.26C193.408 67.98 193.014 67.5733 192.748 67.04C192.494 66.5067 192.368 65.8533 192.368 65.08V60.16H191.088C190.848 60.16 190.661 60.1 190.528 59.98C190.394 59.8467 190.328 59.6733 190.328 59.46C190.328 59.2333 190.394 59.06 190.528 58.94C190.661 58.82 190.848 58.76 191.088 58.76H192.368V56.58C192.368 56.2733 192.448 56.0467 192.608 55.9C192.768 55.74 192.994 55.66 193.288 55.66C193.581 55.66 193.801 55.74 193.948 55.9C194.108 56.0467 194.188 56.2733 194.188 56.58V58.76H196.608C196.861 58.76 197.054 58.82 197.188 58.94C197.321 59.06 197.388 59.2333 197.388 59.46C197.388 59.6733 197.321 59.8467 197.188 59.98C197.054 60.1 196.861 60.16 196.608 60.16H194.188V64.92C194.188 65.6533 194.341 66.2067 194.648 66.58C194.954 66.9533 195.461 67.14 196.168 67.14C196.421 67.14 196.634 67.12 196.808 67.08C196.981 67.0267 197.134 67 197.268 67C197.388 66.9867 197.488 67.0267 197.568 67.12C197.661 67.2133 197.708 67.3867 197.708 67.64C197.708 67.8267 197.674 68 197.608 68.16C197.554 68.3067 197.441 68.4067 197.268 68.46C197.108 68.5133 196.894 68.56 196.628 68.6C196.361 68.6533 196.121 68.68 195.908 68.68ZM199.692 68.6C199.412 68.6 199.192 68.5133 199.032 68.34C198.872 68.1667 198.792 67.9267 198.792 67.62V59.64C198.792 59.32 198.872 59.08 199.032 58.92C199.192 58.7467 199.412 58.66 199.692 58.66C199.985 58.66 200.212 58.7467 200.372 58.92C200.532 59.08 200.612 59.32 200.612 59.64V67.62C200.612 67.9267 200.532 68.1667 200.372 68.34C200.225 68.5133 199.999 68.6 199.692 68.6ZM199.692 56.5C199.332 56.5 199.045 56.4067 198.832 56.22C198.632 56.02 198.532 55.76 198.532 55.44C198.532 55.0933 198.632 54.8333 198.832 54.66C199.045 54.4733 199.332 54.38 199.692 54.38C200.079 54.38 200.365 54.4733 200.552 54.66C200.752 54.8333 200.852 55.0933 200.852 55.44C200.852 55.76 200.752 56.02 200.552 56.22C200.365 56.4067 200.079 56.5 199.692 56.5ZM207.358 68.68C206.371 68.68 205.518 68.4733 204.798 68.06C204.078 67.6333 203.525 67.04 203.138 66.28C202.751 65.5067 202.558 64.6 202.558 63.56C202.558 62.7867 202.665 62.0933 202.878 61.48C203.105 60.8667 203.425 60.3467 203.838 59.92C204.251 59.48 204.751 59.1467 205.338 58.92C205.938 58.6933 206.611 58.58 207.358 58.58C207.825 58.58 208.318 58.6533 208.838 58.8C209.358 58.9467 209.838 59.1867 210.278 59.52C210.425 59.6267 210.518 59.7533 210.558 59.9C210.598 60.0333 210.598 60.1733 210.558 60.32C210.531 60.4667 210.465 60.5933 210.358 60.7C210.265 60.7933 210.138 60.8467 209.978 60.86C209.831 60.8733 209.671 60.8267 209.498 60.72C209.178 60.48 208.838 60.3067 208.478 60.2C208.131 60.0933 207.798 60.04 207.478 60.04C206.985 60.04 206.545 60.12 206.158 60.28C205.785 60.44 205.465 60.6733 205.198 60.98C204.945 61.2733 204.751 61.64 204.618 62.08C204.485 62.5067 204.418 63.0067 204.418 63.58C204.418 64.7133 204.685 65.6067 205.218 66.26C205.751 66.9 206.505 67.22 207.478 67.22C207.798 67.22 208.131 67.1733 208.478 67.08C208.825 66.9733 209.165 66.8 209.498 66.56C209.671 66.4533 209.831 66.4133 209.978 66.44C210.125 66.4533 210.245 66.5133 210.338 66.62C210.445 66.7133 210.511 66.8333 210.538 66.98C210.565 67.1133 210.551 67.2533 210.498 67.4C210.458 67.5467 210.365 67.6667 210.218 67.76C209.791 68.08 209.325 68.3133 208.818 68.46C208.311 68.6067 207.825 68.68 207.358 68.68ZM216.34 68.68C215.286 68.68 214.38 68.48 213.62 68.08C212.873 67.6667 212.293 67.0867 211.88 66.34C211.466 65.58 211.26 64.6867 211.26 63.66C211.26 62.6467 211.46 61.76 211.86 61C212.273 60.24 212.833 59.6467 213.54 59.22C214.26 58.7933 215.08 58.58 216 58.58C216.653 58.58 217.24 58.6933 217.76 58.92C218.293 59.1333 218.746 59.4467 219.12 59.86C219.493 60.2733 219.773 60.78 219.96 61.38C220.16 61.9667 220.26 62.6333 220.26 63.38C220.26 63.5933 220.193 63.76 220.06 63.88C219.94 63.9867 219.76 64.04 219.52 64.04H212.68V62.88H219.06L218.72 63.16C218.72 62.4667 218.613 61.88 218.4 61.4C218.2 60.9067 217.9 60.5333 217.5 60.28C217.113 60.0267 216.626 59.9 216.04 59.9C215.4 59.9 214.853 60.0533 214.4 60.36C213.946 60.6533 213.6 61.0733 213.36 61.62C213.12 62.1533 213 62.7733 213 63.48V63.6C213 64.8 213.286 65.7067 213.86 66.32C214.433 66.9333 215.26 67.24 216.34 67.24C216.766 67.24 217.2 67.1867 217.64 67.08C218.093 66.9733 218.526 66.78 218.94 66.5C219.14 66.38 219.32 66.3267 219.48 66.34C219.653 66.34 219.793 66.3933 219.9 66.5C220.006 66.5933 220.073 66.7133 220.1 66.86C220.126 66.9933 220.106 67.14 220.04 67.3C219.973 67.46 219.846 67.6 219.66 67.72C219.22 68.0267 218.693 68.2667 218.08 68.44C217.48 68.6 216.9 68.68 216.34 68.68ZM231.798 68.68C231.171 68.68 230.565 68.6267 229.978 68.52C229.391 68.4267 228.838 68.28 228.318 68.08C227.798 67.88 227.331 67.6333 226.918 67.34C226.745 67.22 226.618 67.0733 226.538 66.9C226.471 66.7267 226.451 66.56 226.478 66.4C226.518 66.2267 226.591 66.08 226.698 65.96C226.818 65.84 226.958 65.7667 227.118 65.74C227.278 65.7133 227.451 65.7667 227.638 65.9C228.251 66.3133 228.891 66.6133 229.558 66.8C230.238 66.9867 230.985 67.08 231.798 67.08C232.971 67.08 233.831 66.8667 234.378 66.44C234.938 66.0133 235.218 65.4533 235.218 64.76C235.218 64.1867 235.018 63.74 234.618 63.42C234.218 63.0867 233.545 62.8267 232.598 62.64L230.478 62.2C229.225 61.9333 228.285 61.4933 227.658 60.88C227.045 60.2667 226.738 59.4467 226.738 58.42C226.738 57.7933 226.865 57.2267 227.118 56.72C227.371 56.2 227.731 55.7533 228.198 55.38C228.665 55.0067 229.211 54.72 229.838 54.52C230.478 54.32 231.185 54.22 231.958 54.22C232.785 54.22 233.558 54.3333 234.278 54.56C235.011 54.7867 235.671 55.12 236.258 55.56C236.418 55.68 236.525 55.8267 236.578 56C236.631 56.16 236.638 56.32 236.598 56.48C236.571 56.64 236.498 56.7733 236.378 56.88C236.271 56.9867 236.131 57.0467 235.958 57.06C235.798 57.0733 235.618 57.0133 235.418 56.88C234.885 56.5067 234.338 56.24 233.778 56.08C233.218 55.9067 232.605 55.82 231.938 55.82C231.258 55.82 230.665 55.9267 230.158 56.14C229.665 56.3533 229.278 56.6533 228.998 57.04C228.731 57.4133 228.598 57.8533 228.598 58.36C228.598 58.9733 228.785 59.4533 229.158 59.8C229.531 60.1467 230.158 60.4133 231.038 60.6L233.138 61.02C234.471 61.3 235.458 61.7333 236.098 62.32C236.751 62.8933 237.078 63.6667 237.078 64.64C237.078 65.2533 236.951 65.8067 236.698 66.3C236.458 66.7933 236.111 67.22 235.658 67.58C235.205 67.9267 234.651 68.2 233.998 68.4C233.345 68.5867 232.611 68.68 231.798 68.68ZM242.001 68.68C241.335 68.68 240.728 68.5467 240.181 68.28C239.648 68.0133 239.228 67.6533 238.921 67.2C238.628 66.7467 238.481 66.24 238.481 65.68C238.481 64.96 238.661 64.3933 239.021 63.98C239.381 63.5667 239.988 63.2733 240.841 63.1C241.695 62.9133 242.841 62.82 244.281 62.82H245.221V63.98H244.321C243.295 63.98 242.481 64.0267 241.881 64.12C241.295 64.2133 240.881 64.38 240.641 64.62C240.401 64.8467 240.281 65.1667 240.281 65.58C240.281 66.1 240.461 66.5267 240.821 66.86C241.195 67.1933 241.701 67.36 242.341 67.36C242.848 67.36 243.295 67.24 243.681 67C244.068 66.7467 244.375 66.4133 244.601 66C244.828 65.5733 244.941 65.0867 244.941 64.54V62.24C244.941 61.4533 244.781 60.8867 244.461 60.54C244.141 60.18 243.601 60 242.841 60C242.401 60 241.948 60.06 241.481 60.18C241.015 60.3 240.528 60.4867 240.021 60.74C239.821 60.8333 239.648 60.8667 239.501 60.84C239.355 60.8 239.235 60.72 239.141 60.6C239.061 60.4667 239.015 60.3267 239.001 60.18C239.001 60.02 239.035 59.8667 239.101 59.72C239.181 59.5733 239.315 59.4667 239.501 59.4C240.088 59.1067 240.668 58.9 241.241 58.78C241.828 58.6467 242.375 58.58 242.881 58.58C243.748 58.58 244.461 58.72 245.021 59C245.581 59.2667 246.001 59.6867 246.281 60.26C246.561 60.82 246.701 61.54 246.701 62.42V67.7C246.701 68.0067 246.628 68.24 246.481 68.4C246.335 68.56 246.121 68.64 245.841 68.64C245.575 68.64 245.361 68.56 245.201 68.4C245.055 68.24 244.981 68.0067 244.981 67.7V66.28H245.161C245.055 66.7733 244.855 67.2 244.561 67.56C244.268 67.92 243.901 68.2 243.461 68.4C243.035 68.5867 242.548 68.68 242.001 68.68ZM252.225 68.68C251.225 68.68 250.465 68.3867 249.945 67.8C249.425 67.2 249.165 66.34 249.165 65.22V55.18C249.165 54.8733 249.245 54.6467 249.405 54.5C249.565 54.34 249.785 54.26 250.065 54.26C250.359 54.26 250.585 54.34 250.745 54.5C250.905 54.6467 250.985 54.8733 250.985 55.18V65.08C250.985 65.7733 251.125 66.2933 251.405 66.64C251.699 66.9733 252.112 67.14 252.645 67.14C252.765 67.14 252.872 67.14 252.965 67.14C253.059 67.1267 253.152 67.1133 253.245 67.1C253.392 67.0867 253.499 67.1267 253.565 67.22C253.632 67.3133 253.665 67.5 253.665 67.78C253.665 68.0333 253.605 68.2333 253.485 68.38C253.379 68.5133 253.199 68.6 252.945 68.64C252.825 68.6533 252.705 68.66 252.585 68.66C252.465 68.6733 252.345 68.68 252.225 68.68ZM257.881 68.68C257.214 68.68 256.608 68.5467 256.061 68.28C255.528 68.0133 255.108 67.6533 254.801 67.2C254.508 66.7467 254.361 66.24 254.361 65.68C254.361 64.96 254.541 64.3933 254.901 63.98C255.261 63.5667 255.868 63.2733 256.721 63.1C257.574 62.9133 258.721 62.82 260.161 62.82H261.101V63.98H260.201C259.174 63.98 258.361 64.0267 257.761 64.12C257.174 64.2133 256.761 64.38 256.521 64.62C256.281 64.8467 256.161 65.1667 256.161 65.58C256.161 66.1 256.341 66.5267 256.701 66.86C257.074 67.1933 257.581 67.36 258.221 67.36C258.728 67.36 259.174 67.24 259.561 67C259.948 66.7467 260.254 66.4133 260.481 66C260.708 65.5733 260.821 65.0867 260.821 64.54V62.24C260.821 61.4533 260.661 60.8867 260.341 60.54C260.021 60.18 259.481 60 258.721 60C258.281 60 257.828 60.06 257.361 60.18C256.894 60.3 256.408 60.4867 255.901 60.74C255.701 60.8333 255.528 60.8667 255.381 60.84C255.234 60.8 255.114 60.72 255.021 60.6C254.941 60.4667 254.894 60.3267 254.881 60.18C254.881 60.02 254.914 59.8667 254.981 59.72C255.061 59.5733 255.194 59.4667 255.381 59.4C255.968 59.1067 256.548 58.9 257.121 58.78C257.708 58.6467 258.254 58.58 258.761 58.58C259.628 58.58 260.341 58.72 260.901 59C261.461 59.2667 261.881 59.6867 262.161 60.26C262.441 60.82 262.581 61.54 262.581 62.42V67.7C262.581 68.0067 262.508 68.24 262.361 68.4C262.214 68.56 262.001 68.64 261.721 68.64C261.454 68.64 261.241 68.56 261.081 68.4C260.934 68.24 260.861 68.0067 260.861 67.7V66.28H261.041C260.934 66.7733 260.734 67.2 260.441 67.56C260.148 67.92 259.781 68.2 259.341 68.4C258.914 68.5867 258.428 68.68 257.881 68.68ZM265.985 68.64C265.678 68.64 265.445 68.56 265.285 68.4C265.125 68.24 265.045 68.0067 265.045 67.7V59.54C265.045 59.2333 265.125 59.0067 265.285 58.86C265.445 58.7 265.665 58.62 265.945 58.62C266.225 58.62 266.438 58.7 266.585 58.86C266.745 59.0067 266.825 59.2333 266.825 59.54V61.08H266.625C266.838 60.28 267.238 59.6733 267.825 59.26C268.412 58.8467 269.152 58.6133 270.045 58.56C270.258 58.5467 270.432 58.6 270.565 58.72C270.698 58.8267 270.772 59.0133 270.785 59.28C270.798 59.5333 270.738 59.74 270.605 59.9C270.472 60.0467 270.265 60.1333 269.985 60.16L269.625 60.18C268.745 60.2733 268.065 60.56 267.585 61.04C267.118 61.52 266.885 62.18 266.885 63.02V67.7C266.885 68.0067 266.805 68.24 266.645 68.4C266.498 68.56 266.278 68.64 265.985 68.64ZM274.795 72.24C274.582 72.24 274.402 72.18 274.255 72.06C274.122 71.9533 274.042 71.8 274.015 71.6C274.002 71.4133 274.042 71.2133 274.135 71L275.495 67.92V68.68L271.715 59.88C271.622 59.6533 271.589 59.4467 271.615 59.26C271.642 59.0733 271.729 58.92 271.875 58.8C272.035 58.68 272.249 58.62 272.515 58.62C272.742 58.62 272.922 58.6733 273.055 58.78C273.189 58.8867 273.315 59.0733 273.435 59.34L276.575 67.08H276.015L279.215 59.34C279.322 59.0733 279.449 58.8867 279.595 58.78C279.742 58.6733 279.942 58.62 280.195 58.62C280.422 58.62 280.595 58.68 280.715 58.8C280.849 58.92 280.929 59.0733 280.955 59.26C280.982 59.4467 280.942 59.6467 280.835 59.86L275.795 71.52C275.662 71.8 275.522 71.9867 275.375 72.08C275.242 72.1867 275.049 72.24 274.795 72.24Z" fill="#000034"/>
<circle cx="308.5" cy="61.5" r="12.5" fill="#535353"/>
<path d="M309.032 64.976H307.64V64.576C307.64 63.216 308.52 62.48 309.384 61.808C310.168 61.2 310.888 60.608 310.888 59.552C310.888 58.32 310.072 57.408 308.76 57.408C307.496 57.408 306.552 58.4 306.552 59.712H305C305 57.584 306.632 56 308.792 56C311.064 56 312.472 57.44 312.472 59.472C312.472 61.152 311.384 61.968 310.456 62.64C309.608 63.248 309.032 63.76 309.032 64.576V64.976ZM308.408 68C307.768 68 307.256 67.488 307.256 66.864C307.256 66.24 307.768 65.728 308.408 65.728C309.016 65.728 309.544 66.256 309.544 66.864C309.544 67.472 309.016 68 308.408 68Z" fill="white"/>
<path d="M54.942 165.5C53.798 165.5 52.81 165.11 51.978 164.33C51.198 163.498 50.808 162.51 50.808 161.366C50.808 160.17 51.198 159.208 51.978 158.48C52.81 157.7 53.798 157.31 54.942 157.31H59.856L57.984 158.948V139.37L59.778 141.32H54.396C53.408 141.32 52.55 141.008 51.822 140.384C51.146 139.708 50.808 138.876 50.808 137.888C50.808 136.848 51.146 136.016 51.822 135.392C52.55 134.768 53.408 134.456 54.396 134.456H59.778L57.984 136.562V126.734C57.984 123.302 58.66 120.312 60.012 117.764C61.364 115.216 63.392 113.24 66.096 111.836C68.852 110.432 72.284 109.73 76.392 109.73C79.044 109.73 81.722 110.12 84.426 110.9C87.13 111.68 89.34 112.72 91.056 114.02C91.94 114.696 92.512 115.45 92.772 116.282C93.084 117.114 93.11 117.92 92.85 118.7C92.59 119.48 92.148 120.13 91.524 120.65C90.952 121.118 90.224 121.378 89.34 121.43C88.508 121.482 87.624 121.196 86.688 120.572C85.128 119.532 83.516 118.804 81.852 118.388C80.188 117.972 78.524 117.764 76.86 117.764C73.844 117.764 71.608 118.518 70.152 120.026C68.696 121.482 67.968 123.588 67.968 126.344V136.328L66.954 134.456H77.874C78.914 134.456 79.772 134.768 80.448 135.392C81.176 136.016 81.54 136.848 81.54 137.888C81.54 138.876 81.176 139.708 80.448 140.384C79.772 141.008 78.914 141.32 77.874 141.32H67.968V157.31H88.248C89.444 157.31 90.432 157.7 91.212 158.48C91.992 159.208 92.382 160.17 92.382 161.366C92.382 162.51 91.992 163.498 91.212 164.33C90.432 165.11 89.444 165.5 88.248 165.5H54.942ZM105.378 165.5C104.026 165.5 102.96 165.136 102.18 164.408C101.452 163.628 101.088 162.588 101.088 161.288C101.088 159.936 101.452 158.922 102.18 158.246C102.96 157.57 104.026 157.232 105.378 157.232H114.114V118.934H118.95L107.484 125.876C106.496 126.448 105.56 126.682 104.676 126.578C103.844 126.422 103.116 126.058 102.492 125.486C101.92 124.862 101.53 124.134 101.322 123.302C101.114 122.47 101.166 121.638 101.478 120.806C101.842 119.922 102.518 119.194 103.506 118.622L114.27 112.148C115.31 111.524 116.35 111.004 117.39 110.588C118.43 110.12 119.392 109.886 120.276 109.886C121.368 109.886 122.278 110.198 123.006 110.822C123.734 111.394 124.098 112.356 124.098 113.708V157.232H132.054C133.406 157.232 134.446 157.57 135.174 158.246C135.954 158.922 136.344 159.936 136.344 161.288C136.344 162.64 135.954 163.68 135.174 164.408C134.446 165.136 133.406 165.5 132.054 165.5H105.378ZM161.819 166.28C157.555 166.28 153.889 165.682 150.821 164.486C147.805 163.238 145.465 161.444 143.801 159.104C142.189 156.764 141.383 153.956 141.383 150.68C141.383 148.08 141.903 145.792 142.943 143.816C144.035 141.788 145.517 140.15 147.389 138.902C149.261 137.654 151.393 136.874 153.785 136.562V138.2C150.457 137.472 147.779 135.886 145.751 133.442C143.775 130.946 142.787 127.982 142.787 124.55C142.787 121.43 143.567 118.778 145.127 116.594C146.687 114.358 148.897 112.668 151.757 111.524C154.617 110.328 157.971 109.73 161.819 109.73C165.719 109.73 169.099 110.328 171.959 111.524C174.819 112.668 177.029 114.358 178.589 116.594C180.149 118.778 180.929 121.43 180.929 124.55C180.929 126.838 180.461 128.944 179.525 130.868C178.641 132.792 177.367 134.378 175.703 135.626C174.091 136.874 172.193 137.706 170.009 138.122V136.562C173.649 137.082 176.587 138.616 178.823 141.164C181.111 143.66 182.255 146.832 182.255 150.68C182.255 153.956 181.423 156.764 179.759 159.104C178.147 161.444 175.807 163.238 172.739 164.486C169.723 165.682 166.083 166.28 161.819 166.28ZM161.819 158.48C165.511 158.48 168.293 157.778 170.165 156.374C172.037 154.918 172.973 152.786 172.973 149.978C172.973 147.17 172.037 145.064 170.165 143.66C168.293 142.256 165.511 141.554 161.819 141.554C158.179 141.554 155.397 142.256 153.473 143.66C151.601 145.064 150.665 147.17 150.665 149.978C150.665 152.786 151.601 154.918 153.473 156.374C155.397 157.778 158.179 158.48 161.819 158.48ZM161.819 133.754C163.899 133.754 165.667 133.442 167.123 132.818C168.579 132.142 169.697 131.18 170.477 129.932C171.257 128.684 171.647 127.228 171.647 125.564C171.647 123.068 170.763 121.118 168.995 119.714C167.279 118.258 164.887 117.53 161.819 117.53C158.751 117.53 156.359 118.258 154.643 119.714C152.927 121.118 152.069 123.068 152.069 125.564C152.069 128.112 152.927 130.114 154.643 131.57C156.359 133.026 158.751 133.754 161.819 133.754ZM194.627 173.846C193.951 174.678 193.223 175.146 192.443 175.25C191.715 175.406 191.065 175.276 190.493 174.86C189.921 174.444 189.609 173.846 189.557 173.066C189.505 172.338 189.843 171.532 190.571 170.648C191.611 169.348 192.313 168.048 192.677 166.748C193.041 165.448 193.223 164.278 193.223 163.238L193.613 165.89C191.793 165.89 190.311 165.37 189.167 164.33C188.075 163.238 187.529 161.808 187.529 160.04C187.529 158.376 188.049 157.024 189.089 155.984C190.129 154.892 191.533 154.346 193.301 154.346C195.121 154.346 196.551 154.97 197.591 156.218C198.631 157.414 199.151 159.156 199.151 161.444C199.151 162.692 199.021 163.992 198.761 165.344C198.553 166.644 198.111 167.996 197.435 169.4C196.811 170.856 195.875 172.338 194.627 173.846ZM224.816 166.28C218.316 166.28 213.35 163.836 209.918 158.948C206.486 154.008 204.77 146.988 204.77 137.888C204.77 131.752 205.524 126.604 207.032 122.444C208.592 118.232 210.854 115.06 213.818 112.928C216.834 110.796 220.5 109.73 224.816 109.73C231.368 109.73 236.334 112.122 239.714 116.906C243.146 121.69 244.862 128.658 244.862 137.81C244.862 143.894 244.082 149.068 242.522 153.332C241.014 157.544 238.778 160.768 235.814 163.004C232.85 165.188 229.184 166.28 224.816 166.28ZM224.816 158.09C228.352 158.09 230.952 156.452 232.616 153.176C234.332 149.9 235.19 144.778 235.19 137.81C235.19 130.842 234.332 125.798 232.616 122.678C230.952 119.506 228.352 117.92 224.816 117.92C221.332 117.92 218.732 119.506 217.016 122.678C215.3 125.798 214.442 130.842 214.442 137.81C214.442 144.778 215.3 149.9 217.016 153.176C218.732 156.452 221.332 158.09 224.816 158.09ZM270.026 166.28C263.526 166.28 258.56 163.836 255.128 158.948C251.696 154.008 249.98 146.988 249.98 137.888C249.98 131.752 250.734 126.604 252.242 122.444C253.802 118.232 256.064 115.06 259.028 112.928C262.044 110.796 265.71 109.73 270.026 109.73C276.578 109.73 281.544 112.122 284.924 116.906C288.356 121.69 290.072 128.658 290.072 137.81C290.072 143.894 289.292 149.068 287.732 153.332C286.224 157.544 283.988 160.768 281.024 163.004C278.06 165.188 274.394 166.28 270.026 166.28ZM270.026 158.09C273.562 158.09 276.162 156.452 277.826 153.176C279.542 149.9 280.4 144.778 280.4 137.81C280.4 130.842 279.542 125.798 277.826 122.678C276.162 119.506 273.562 117.92 270.026 117.92C266.542 117.92 263.942 119.506 262.226 122.678C260.51 125.798 259.652 130.842 259.652 137.81C259.652 144.778 260.51 149.9 262.226 153.176C263.942 156.452 266.542 158.09 270.026 158.09ZM315.235 166.28C308.735 166.28 303.769 163.836 300.337 158.948C296.905 154.008 295.189 146.988 295.189 137.888C295.189 131.752 295.943 126.604 297.451 122.444C299.011 118.232 301.273 115.06 304.237 112.928C307.253 110.796 310.919 109.73 315.235 109.73C321.787 109.73 326.753 112.122 330.133 116.906C333.565 121.69 335.281 128.658 335.281 137.81C335.281 143.894 334.501 149.068 332.941 153.332C331.433 157.544 329.197 160.768 326.233 163.004C323.269 165.188 319.603 166.28 315.235 166.28ZM315.235 158.09C318.771 158.09 321.371 156.452 323.035 153.176C324.751 149.9 325.609 144.778 325.609 137.81C325.609 130.842 324.751 125.798 323.035 122.678C321.371 119.506 318.771 117.92 315.235 117.92C311.751 117.92 309.151 119.506 307.435 122.678C305.719 125.798 304.861 130.842 304.861 137.81C304.861 144.778 305.719 149.9 307.435 153.176C309.151 156.452 311.751 158.09 315.235 158.09Z" fill="#000034"/>
<g opacity="0.89">
<path d="M487.258 256.157C486.722 255.57 486.044 255.131 485.344 254.765C483.818 253.97 482.15 253.488 480.494 253.052V265.886C483.182 265.582 486.269 264.606 487.68 262.097C488.354 260.898 488.488 259.425 488.213 258.091C488.065 257.368 487.757 256.704 487.258 256.157Z" fill="#6A76F3"/>
<path d="M487.666 262.121C487.671 262.112 487.674 262.107 487.68 262.097C487.675 262.105 487.67 262.113 487.666 262.121Z" fill="#8FB780"/>
<path d="M467.885 235.641C467.423 236.316 467.133 237.082 467.053 237.897C466.973 238.714 467.018 239.622 467.328 240.391C467.623 241.124 468.242 241.664 468.881 242.1C469.598 242.587 470.386 242.968 471.189 243.291C471.862 243.562 472.62 243.821 473.436 244.072V232.459C471.373 232.899 469.119 233.839 467.885 235.641Z" fill="#6A76F3"/>
<path d="M487.732 262.002C487.716 262.031 487.698 262.062 487.68 262.094C487.701 262.057 487.717 262.029 487.732 262.002Z" fill="#8FB780"/>
<path d="M487.801 261.881C487.805 261.874 487.806 261.873 487.801 261.881V261.881Z" fill="#8FB780"/>
<path d="M474.794 191.469C483.111 179.893 485.086 158.078 480.514 158.309C474.439 158.616 463.188 166.911 457.351 169.353C449.012 172.58 437.005 164.596 433.215 171.713C430.134 177.5 441.823 192.72 455.204 197.242C425.218 222.804 398.558 319.615 484.155 304.372C602.592 283.282 518.839 197.74 474.794 191.469ZM501.745 255.614C502.226 259.002 501.237 262.427 499.14 265.115C496.927 267.954 493.721 269.828 490.356 270.98L491.282 274.623C491.53 275.597 491.344 276.648 490.779 277.479C490.002 278.621 488.584 279.215 487.224 278.964C485.882 278.717 484.779 277.685 484.443 276.363L483.43 272.382C482.812 272.42 482.193 272.435 481.575 272.424C478.139 272.358 474.723 271.396 471.899 269.405C470.493 268.412 469.243 267.198 468.237 265.8C467.974 265.434 467.726 265.057 467.495 264.671C467.286 264.321 467.072 263.966 466.931 263.581C466.695 262.937 466.654 262.228 466.813 261.56C467.138 260.186 468.288 259.113 469.683 258.888C471.056 258.666 472.47 259.298 473.219 260.47C473.449 260.831 473.64 261.213 473.886 261.566C474.129 261.916 474.4 262.248 474.697 262.555C475.283 263.157 475.958 263.679 476.688 264.095C478.192 264.952 479.924 265.317 481.643 265.359L478.201 251.826C474.856 251.812 471.351 251.587 468.247 250.232C466.738 249.572 465.36 248.627 464.294 247.365C463.169 246.032 462.432 244.416 461.992 242.737C461.544 241.032 461.438 239.257 461.755 237.519C462.052 235.892 462.68 234.339 463.582 232.955C465.511 229.996 468.528 227.851 471.764 226.522L471.688 226.224L470.802 222.741C470.554 221.767 470.74 220.716 471.306 219.885C472.083 218.743 473.5 218.149 474.86 218.4C476.202 218.648 477.305 219.679 477.642 221.001L478.528 224.485L478.598 224.762C479.06 224.704 479.523 224.658 479.987 224.626C483.435 224.384 487.005 224.925 490.019 226.688C491.447 227.523 492.723 228.626 493.753 229.921C494.04 230.282 494.307 230.659 494.554 231.049C494.785 231.413 495.019 231.789 495.186 232.187C495.453 232.823 495.526 233.532 495.397 234.209C495.132 235.596 494.033 236.716 492.65 237.005C491.291 237.288 489.851 236.723 489.05 235.589C488.812 235.252 488.639 234.875 488.398 234.539C488.155 234.199 487.872 233.888 487.566 233.604C486.97 233.052 486.271 232.627 485.519 232.321C483.891 231.657 482.094 231.553 480.358 231.681L483.652 244.631C485.747 244.601 487.854 244.614 489.935 244.879C493.081 245.279 496.23 246.318 498.484 248.647C498.134 248.284 497.793 247.93 498.496 248.659C499.186 249.375 498.857 249.034 498.511 248.675C500.309 250.548 501.382 253.06 501.745 255.614Z" fill="#5865F2"/>
<path d="M487.627 262.188C487.607 262.224 487.59 262.255 487.576 262.279C487.588 262.259 487.605 262.227 487.627 262.188Z" fill="#8FB780"/>
</g>
</g>
<rect x="0.5" y="1" width="525" height="295" rx="19.5" stroke="black"/>
<defs>
<clipPath id="clip0_2316_533">
<rect y="0.5" width="526" height="296" rx="20" fill="white"/>
</clipPath>
</defs>
</svg>
