<svg width="526" height="297" viewBox="0 0 526 297" fill="none" xmlns="http://www.w3.org/2000/svg">
<g clip-path="url(#clip0_2316_528)">
<rect y="0.5" width="526" height="296" rx="32" fill="#151934"/>
<rect y="0.5" width="526" height="296" fill="#000034"/>
<path d="M41.74 71.82C40.8013 71.82 39.8627 71.7453 38.924 71.596C37.9853 71.468 37.1 71.2653 36.268 70.988C35.436 70.6893 34.6893 70.3267 34.028 69.9C33.644 69.644 33.3773 69.3347 33.228 68.972C33.0787 68.6093 33.0253 68.2573 33.068 67.916C33.132 67.5533 33.2707 67.244 33.484 66.988C33.7187 66.7107 34.0067 66.54 34.348 66.476C34.6893 66.412 35.0627 66.508 35.468 66.764C36.4067 67.3187 37.3987 67.724 38.444 67.98C39.4893 68.236 40.588 68.364 41.74 68.364C43.4253 68.364 44.652 68.0867 45.42 67.532C46.188 66.956 46.572 66.22 46.572 65.324C46.572 64.5773 46.2947 63.9907 45.74 63.564C45.2067 63.1373 44.2787 62.7853 42.956 62.508L39.436 61.772C37.4093 61.3453 35.8947 60.6307 34.892 59.628C33.9107 58.604 33.42 57.26 33.42 55.596C33.42 54.5507 33.6333 53.6013 34.06 52.748C34.4867 51.8947 35.084 51.1587 35.852 50.54C36.6413 49.9213 37.5693 49.452 38.636 49.132C39.724 48.7907 40.9187 48.62 42.22 48.62C43.5 48.62 44.716 48.78 45.868 49.1C47.02 49.42 48.0547 49.8893 48.972 50.508C49.3133 50.7427 49.5373 51.0307 49.644 51.372C49.772 51.7133 49.804 52.0547 49.74 52.396C49.676 52.716 49.5267 52.9933 49.292 53.228C49.0573 53.4627 48.7587 53.6013 48.396 53.644C48.0547 53.6867 47.66 53.58 47.212 53.324C46.4227 52.876 45.6227 52.556 44.812 52.364C44.0013 52.172 43.1267 52.076 42.188 52.076C41.2067 52.076 40.364 52.2147 39.66 52.492C38.956 52.7693 38.412 53.164 38.028 53.676C37.6653 54.1667 37.484 54.7533 37.484 55.436C37.484 56.204 37.74 56.8227 38.252 57.292C38.764 57.74 39.6387 58.092 40.876 58.348L44.364 59.084C46.476 59.532 48.044 60.236 49.068 61.196C50.1133 62.156 50.636 63.436 50.636 65.036C50.636 66.06 50.4227 66.988 49.996 67.82C49.5907 68.652 48.9933 69.3667 48.204 69.964C47.436 70.5613 46.508 71.02 45.42 71.34C44.332 71.66 43.1053 71.82 41.74 71.82ZM55.6875 71.5C54.9835 71.5 54.4395 71.3187 54.0555 70.956C53.6928 70.572 53.5115 70.028 53.5115 69.324V51.116C53.5115 50.412 53.6928 49.8787 54.0555 49.516C54.4395 49.132 54.9835 48.94 55.6875 48.94H67.1115C67.6448 48.94 68.0502 49.0787 68.3275 49.356C68.6262 49.6333 68.7755 50.028 68.7755 50.54C68.7755 51.0733 68.6262 51.4893 68.3275 51.788C68.0502 52.0653 67.6448 52.204 67.1115 52.204H57.4475V58.412H66.4075C66.9622 58.412 67.3782 58.5507 67.6555 58.828C67.9328 59.1053 68.0715 59.5107 68.0715 60.044C68.0715 60.5773 67.9328 60.9827 67.6555 61.26C67.3782 61.5373 66.9622 61.676 66.4075 61.676H57.4475V68.236H67.1115C67.6448 68.236 68.0502 68.3747 68.3275 68.652C68.6262 68.9293 68.7755 69.3347 68.7755 69.868C68.7755 70.4013 68.6262 70.8067 68.3275 71.084C68.0502 71.3613 67.6448 71.5 67.1115 71.5H55.6875ZM71.783 71.756C71.271 71.756 70.855 71.6387 70.535 71.404C70.2363 71.1693 70.055 70.86 69.991 70.476C69.927 70.0707 70.0017 69.6227 70.215 69.132L78.663 50.412C78.9403 49.7933 79.271 49.356 79.655 49.1C80.0603 48.8227 80.519 48.684 81.031 48.684C81.5217 48.684 81.959 48.8227 82.343 49.1C82.7483 49.356 83.0897 49.7933 83.367 50.412L91.847 69.132C92.0817 69.6227 92.167 70.0707 92.103 70.476C92.039 70.8813 91.8577 71.2013 91.559 71.436C91.2603 71.6493 90.8657 71.756 90.375 71.756C89.7777 71.756 89.3083 71.6173 88.967 71.34C88.647 71.0413 88.359 70.5933 88.103 69.996L86.023 65.164L87.751 66.284H74.247L75.975 65.164L73.927 69.996C73.6497 70.6147 73.3617 71.0627 73.063 71.34C72.7643 71.6173 72.3377 71.756 71.783 71.756ZM80.967 53.388L76.487 64.044L75.655 63.02H86.343L85.543 64.044L81.031 53.388H80.967ZM96.7795 71.756C96.1182 71.756 95.6062 71.5747 95.2435 71.212C94.9022 70.828 94.7315 70.3053 94.7315 69.644V51.02C94.7315 50.3373 94.9128 49.8253 95.2755 49.484C95.6382 49.1213 96.1502 48.94 96.8115 48.94H104.524C106.998 48.94 108.908 49.5373 110.252 50.732C111.596 51.9053 112.268 53.5587 112.268 55.692C112.268 57.0787 111.958 58.2733 111.34 59.276C110.742 60.2787 109.868 61.0467 108.716 61.58C107.564 62.1133 106.166 62.38 104.524 62.38L104.812 61.9H105.868C106.742 61.9 107.5 62.1133 108.14 62.54C108.801 62.9667 109.377 63.6387 109.868 64.556L112.268 69.004C112.524 69.452 112.641 69.8893 112.62 70.316C112.598 70.7427 112.438 71.0947 112.14 71.372C111.841 71.628 111.404 71.756 110.828 71.756C110.252 71.756 109.782 71.6387 109.42 71.404C109.057 71.148 108.737 70.764 108.46 70.252L105.228 64.3C104.844 63.5747 104.385 63.0947 103.852 62.86C103.34 62.604 102.678 62.476 101.868 62.476H98.8275V69.644C98.8275 70.3053 98.6568 70.828 98.3155 71.212C97.9742 71.5747 97.4622 71.756 96.7795 71.756ZM98.8275 59.436H103.82C105.292 59.436 106.401 59.1373 107.148 58.54C107.916 57.9213 108.3 57.004 108.3 55.788C108.3 54.5933 107.916 53.6973 107.148 53.1C106.401 52.4813 105.292 52.172 103.82 52.172H98.8275V59.436ZM126.369 71.82C124.022 71.82 122.006 71.3507 120.321 70.412C118.657 69.452 117.377 68.108 116.481 66.38C115.585 64.6307 115.137 62.572 115.137 60.204C115.137 58.4333 115.393 56.844 115.905 55.436C116.417 54.0067 117.153 52.7907 118.113 51.788C119.073 50.764 120.246 49.9853 121.633 49.452C123.041 48.8973 124.619 48.62 126.369 48.62C127.542 48.62 128.694 48.7693 129.825 49.068C130.955 49.3667 131.947 49.7933 132.801 50.348C133.249 50.6253 133.547 50.9667 133.697 51.372C133.846 51.756 133.878 52.14 133.793 52.524C133.707 52.8867 133.526 53.196 133.249 53.452C132.993 53.708 132.662 53.8573 132.257 53.9C131.873 53.9213 131.446 53.7827 130.977 53.484C130.315 53.0573 129.601 52.748 128.833 52.556C128.065 52.364 127.286 52.268 126.497 52.268C124.982 52.268 123.702 52.5773 122.657 53.196C121.611 53.8147 120.822 54.7107 120.289 55.884C119.755 57.0573 119.489 58.4973 119.489 60.204C119.489 61.8893 119.755 63.3293 120.289 64.524C120.822 65.7187 121.611 66.6253 122.657 67.244C123.702 67.8627 124.982 68.172 126.497 68.172C127.307 68.172 128.107 68.076 128.897 67.884C129.686 67.6707 130.433 67.3507 131.137 66.924C131.606 66.6467 132.022 66.5293 132.385 66.572C132.769 66.5933 133.089 66.7213 133.345 66.956C133.601 67.1907 133.771 67.4893 133.857 67.852C133.942 68.1933 133.921 68.556 133.793 68.94C133.665 69.3027 133.409 69.6227 133.025 69.9C132.171 70.5187 131.147 70.9987 129.953 71.34C128.779 71.66 127.585 71.82 126.369 71.82ZM139.031 71.756C138.369 71.756 137.857 71.5747 137.495 71.212C137.153 70.828 136.983 70.3053 136.983 69.644V50.796C136.983 50.1133 137.153 49.5907 137.495 49.228C137.857 48.8653 138.369 48.684 139.031 48.684C139.692 48.684 140.193 48.8653 140.535 49.228C140.897 49.5907 141.079 50.1133 141.079 50.796V58.348H152.695V50.796C152.695 50.1133 152.865 49.5907 153.207 49.228C153.569 48.8653 154.081 48.684 154.743 48.684C155.404 48.684 155.905 48.8653 156.247 49.228C156.609 49.5907 156.791 50.1133 156.791 50.796V69.644C156.791 70.3053 156.609 70.828 156.247 71.212C155.905 71.5747 155.404 71.756 154.743 71.756C154.081 71.756 153.569 71.5747 153.207 71.212C152.865 70.828 152.695 70.3053 152.695 69.644V61.772H141.079V69.644C141.079 70.3053 140.908 70.828 140.567 71.212C140.225 71.5747 139.713 71.756 139.031 71.756ZM169.364 71.756C168.852 71.756 168.436 71.6387 168.116 71.404C167.818 71.1693 167.636 70.86 167.572 70.476C167.508 70.0707 167.583 69.6227 167.796 69.132L176.244 50.412C176.522 49.7933 176.852 49.356 177.236 49.1C177.642 48.8227 178.1 48.684 178.612 48.684C179.103 48.684 179.54 48.8227 179.924 49.1C180.33 49.356 180.671 49.7933 180.948 50.412L189.428 69.132C189.663 69.6227 189.748 70.0707 189.684 70.476C189.62 70.8813 189.439 71.2013 189.14 71.436C188.842 71.6493 188.447 71.756 187.956 71.756C187.359 71.756 186.89 71.6173 186.548 71.34C186.228 71.0413 185.94 70.5933 185.684 69.996L183.604 65.164L185.332 66.284H171.828L173.556 65.164L171.508 69.996C171.231 70.6147 170.943 71.0627 170.644 71.34C170.346 71.6173 169.919 71.756 169.364 71.756ZM178.548 53.388L174.068 64.044L173.236 63.02H183.924L183.124 64.044L178.612 53.388H178.548ZM194.361 71.756C193.699 71.756 193.187 71.5747 192.825 71.212C192.483 70.828 192.313 70.3053 192.313 69.644V51.02C192.313 50.3373 192.494 49.8253 192.857 49.484C193.219 49.1213 193.731 48.94 194.393 48.94H202.105C204.579 48.94 206.489 49.5587 207.833 50.796C209.177 52.0333 209.849 53.7613 209.849 55.98C209.849 58.1987 209.177 59.9373 207.833 61.196C206.489 62.4333 204.579 63.052 202.105 63.052H196.409V69.644C196.409 70.3053 196.238 70.828 195.897 71.212C195.555 71.5747 195.043 71.756 194.361 71.756ZM196.409 59.82H201.465C202.915 59.82 204.014 59.5 204.761 58.86C205.507 58.1987 205.881 57.2387 205.881 55.98C205.881 54.7213 205.507 53.772 204.761 53.132C204.014 52.492 202.915 52.172 201.465 52.172H196.409V59.82ZM214.596 71.756C213.934 71.756 213.422 71.5747 213.06 71.212C212.718 70.828 212.548 70.3053 212.548 69.644V51.02C212.548 50.3373 212.729 49.8253 213.092 49.484C213.454 49.1213 213.966 48.94 214.628 48.94H222.34C224.814 48.94 226.724 49.5587 228.068 50.796C229.412 52.0333 230.084 53.7613 230.084 55.98C230.084 58.1987 229.412 59.9373 228.068 61.196C226.724 62.4333 224.814 63.052 222.34 63.052H216.644V69.644C216.644 70.3053 216.473 70.828 216.132 71.212C215.79 71.5747 215.278 71.756 214.596 71.756ZM216.644 59.82H221.7C223.15 59.82 224.249 59.5 224.996 58.86C225.742 58.1987 226.116 57.2387 226.116 55.98C226.116 54.7213 225.742 53.772 224.996 53.132C224.249 52.492 223.15 52.172 221.7 52.172H216.644V59.82ZM234.831 71.756C234.169 71.756 233.657 71.5747 233.295 71.212C232.953 70.828 232.783 70.3053 232.783 69.644V51.02C232.783 50.3373 232.964 49.8253 233.327 49.484C233.689 49.1213 234.201 48.94 234.863 48.94H242.575C245.049 48.94 246.959 49.5373 248.303 50.732C249.647 51.9053 250.319 53.5587 250.319 55.692C250.319 57.0787 250.009 58.2733 249.391 59.276C248.793 60.2787 247.919 61.0467 246.767 61.58C245.615 62.1133 244.217 62.38 242.575 62.38L242.863 61.9H243.919C244.793 61.9 245.551 62.1133 246.191 62.54C246.852 62.9667 247.428 63.6387 247.919 64.556L250.319 69.004C250.575 69.452 250.692 69.8893 250.671 70.316C250.649 70.7427 250.489 71.0947 250.191 71.372C249.892 71.628 249.455 71.756 248.879 71.756C248.303 71.756 247.833 71.6387 247.471 71.404C247.108 71.148 246.788 70.764 246.511 70.252L243.279 64.3C242.895 63.5747 242.436 63.0947 241.903 62.86C241.391 62.604 240.729 62.476 239.919 62.476H236.879V69.644C236.879 70.3053 236.708 70.828 236.367 71.212C236.025 71.5747 235.513 71.756 234.831 71.756ZM236.879 59.436H241.871C243.343 59.436 244.452 59.1373 245.199 58.54C245.967 57.9213 246.351 57.004 246.351 55.788C246.351 54.5933 245.967 53.6973 245.199 53.1C244.452 52.4813 243.343 52.172 241.871 52.172H236.879V59.436ZM256.256 71.5C255.552 71.5 255.008 71.3187 254.624 70.956C254.262 70.572 254.08 70.028 254.08 69.324V51.116C254.08 50.412 254.262 49.8787 254.624 49.516C255.008 49.132 255.552 48.94 256.256 48.94H267.68C268.214 48.94 268.619 49.0787 268.896 49.356C269.195 49.6333 269.344 50.028 269.344 50.54C269.344 51.0733 269.195 51.4893 268.896 51.788C268.619 52.0653 268.214 52.204 267.68 52.204H258.016V58.412H266.976C267.531 58.412 267.947 58.5507 268.224 58.828C268.502 59.1053 268.64 59.5107 268.64 60.044C268.64 60.5773 268.502 60.9827 268.224 61.26C267.947 61.5373 267.531 61.676 266.976 61.676H258.016V68.236H267.68C268.214 68.236 268.619 68.3747 268.896 68.652C269.195 68.9293 269.344 69.3347 269.344 69.868C269.344 70.4013 269.195 70.8067 268.896 71.084C268.619 71.3613 268.214 71.5 267.68 71.5H256.256ZM274.454 71.756C273.835 71.756 273.355 71.5853 273.014 71.244C272.694 70.9027 272.534 70.412 272.534 69.772V50.732C272.534 50.0707 272.694 49.5693 273.014 49.228C273.355 48.8653 273.793 48.684 274.326 48.684C274.817 48.684 275.179 48.78 275.414 48.972C275.67 49.1427 275.969 49.4413 276.31 49.868L288.566 65.772H287.734V50.636C287.734 50.0173 287.894 49.5373 288.214 49.196C288.555 48.8547 289.035 48.684 289.654 48.684C290.273 48.684 290.742 48.8547 291.062 49.196C291.382 49.5373 291.542 50.0173 291.542 50.636V69.836C291.542 70.4333 291.393 70.9027 291.094 71.244C290.795 71.5853 290.39 71.756 289.878 71.756C289.387 71.756 288.993 71.66 288.694 71.468C288.417 71.276 288.107 70.9667 287.766 70.54L275.542 54.636H276.342V69.772C276.342 70.412 276.182 70.9027 275.862 71.244C275.542 71.5853 275.073 71.756 274.454 71.756ZM303.319 71.756C302.658 71.756 302.146 71.5747 301.783 71.212C301.442 70.828 301.271 70.3053 301.271 69.644V52.364H295.031C294.477 52.364 294.039 52.2147 293.719 51.916C293.421 51.596 293.271 51.1693 293.271 50.636C293.271 50.0813 293.421 49.6653 293.719 49.388C294.039 49.0893 294.477 48.94 295.031 48.94H311.607C312.162 48.94 312.589 49.0893 312.887 49.388C313.207 49.6653 313.367 50.0813 313.367 50.636C313.367 51.1693 313.207 51.596 312.887 51.916C312.589 52.2147 312.162 52.364 311.607 52.364H305.367V69.644C305.367 70.3053 305.197 70.828 304.855 71.212C304.514 71.5747 304.002 71.756 303.319 71.756ZM317.115 71.756C316.453 71.756 315.941 71.5747 315.579 71.212C315.237 70.828 315.067 70.3053 315.067 69.644V50.796C315.067 50.1133 315.237 49.5907 315.579 49.228C315.941 48.8653 316.453 48.684 317.115 48.684C317.776 48.684 318.277 48.8653 318.619 49.228C318.981 49.5907 319.163 50.1133 319.163 50.796V69.644C319.163 70.3053 318.992 70.828 318.651 71.212C318.309 71.5747 317.797 71.756 317.115 71.756ZM333.954 71.82C331.607 71.82 329.591 71.3507 327.906 70.412C326.242 69.452 324.962 68.108 324.066 66.38C323.17 64.6307 322.722 62.572 322.722 60.204C322.722 58.4333 322.978 56.844 323.49 55.436C324.002 54.0067 324.738 52.7907 325.698 51.788C326.658 50.764 327.831 49.9853 329.218 49.452C330.626 48.8973 332.204 48.62 333.954 48.62C335.127 48.62 336.279 48.7693 337.41 49.068C338.54 49.3667 339.532 49.7933 340.386 50.348C340.834 50.6253 341.132 50.9667 341.282 51.372C341.431 51.756 341.463 52.14 341.378 52.524C341.292 52.8867 341.111 53.196 340.834 53.452C340.578 53.708 340.247 53.8573 339.842 53.9C339.458 53.9213 339.031 53.7827 338.562 53.484C337.9 53.0573 337.186 52.748 336.418 52.556C335.65 52.364 334.871 52.268 334.082 52.268C332.567 52.268 331.287 52.5773 330.242 53.196C329.196 53.8147 328.407 54.7107 327.874 55.884C327.34 57.0573 327.074 58.4973 327.074 60.204C327.074 61.8893 327.34 63.3293 327.874 64.524C328.407 65.7187 329.196 66.6253 330.242 67.244C331.287 67.8627 332.567 68.172 334.082 68.172C334.892 68.172 335.692 68.076 336.482 67.884C337.271 67.6707 338.018 67.3507 338.722 66.924C339.191 66.6467 339.607 66.5293 339.97 66.572C340.354 66.5933 340.674 66.7213 340.93 66.956C341.186 67.1907 341.356 67.4893 341.442 67.852C341.527 68.1933 341.506 68.556 341.378 68.94C341.25 69.3027 340.994 69.6227 340.61 69.9C339.756 70.5187 338.732 70.9987 337.538 71.34C336.364 71.66 335.17 71.82 333.954 71.82ZM346.744 71.5C346.04 71.5 345.496 71.3187 345.112 70.956C344.749 70.572 344.568 70.028 344.568 69.324V51.116C344.568 50.412 344.749 49.8787 345.112 49.516C345.496 49.132 346.04 48.94 346.744 48.94H358.168C358.701 48.94 359.106 49.0787 359.384 49.356C359.682 49.6333 359.832 50.028 359.832 50.54C359.832 51.0733 359.682 51.4893 359.384 51.788C359.106 52.0653 358.701 52.204 358.168 52.204H348.504V58.412H357.464C358.018 58.412 358.434 58.5507 358.712 58.828C358.989 59.1053 359.128 59.5107 359.128 60.044C359.128 60.5773 358.989 60.9827 358.712 61.26C358.434 61.5373 358.018 61.676 357.464 61.676H348.504V68.236H358.168C358.701 68.236 359.106 68.3747 359.384 68.652C359.682 68.9293 359.832 69.3347 359.832 69.868C359.832 70.4013 359.682 70.8067 359.384 71.084C359.106 71.3613 358.701 71.5 358.168 71.5H346.744ZM370.485 71.82C369.546 71.82 368.608 71.7453 367.669 71.596C366.73 71.468 365.845 71.2653 365.013 70.988C364.181 70.6893 363.434 70.3267 362.773 69.9C362.389 69.644 362.122 69.3347 361.973 68.972C361.824 68.6093 361.77 68.2573 361.813 67.916C361.877 67.5533 362.016 67.244 362.229 66.988C362.464 66.7107 362.752 66.54 363.093 66.476C363.434 66.412 363.808 66.508 364.213 66.764C365.152 67.3187 366.144 67.724 367.189 67.98C368.234 68.236 369.333 68.364 370.485 68.364C372.17 68.364 373.397 68.0867 374.165 67.532C374.933 66.956 375.317 66.22 375.317 65.324C375.317 64.5773 375.04 63.9907 374.485 63.564C373.952 63.1373 373.024 62.7853 371.701 62.508L368.181 61.772C366.154 61.3453 364.64 60.6307 363.637 59.628C362.656 58.604 362.165 57.26 362.165 55.596C362.165 54.5507 362.378 53.6013 362.805 52.748C363.232 51.8947 363.829 51.1587 364.597 50.54C365.386 49.9213 366.314 49.452 367.381 49.132C368.469 48.7907 369.664 48.62 370.965 48.62C372.245 48.62 373.461 48.78 374.613 49.1C375.765 49.42 376.8 49.8893 377.717 50.508C378.058 50.7427 378.282 51.0307 378.389 51.372C378.517 51.7133 378.549 52.0547 378.485 52.396C378.421 52.716 378.272 52.9933 378.037 53.228C377.802 53.4627 377.504 53.6013 377.141 53.644C376.8 53.6867 376.405 53.58 375.957 53.324C375.168 52.876 374.368 52.556 373.557 52.364C372.746 52.172 371.872 52.076 370.933 52.076C369.952 52.076 369.109 52.2147 368.405 52.492C367.701 52.7693 367.157 53.164 366.773 53.676C366.41 54.1667 366.229 54.7533 366.229 55.436C366.229 56.204 366.485 56.8227 366.997 57.292C367.509 57.74 368.384 58.092 369.621 58.348L373.109 59.084C375.221 59.532 376.789 60.236 377.813 61.196C378.858 62.156 379.381 63.436 379.381 65.036C379.381 66.06 379.168 66.988 378.741 67.82C378.336 68.652 377.738 69.3667 376.949 69.964C376.181 70.5613 375.253 71.02 374.165 71.34C373.077 71.66 371.85 71.82 370.485 71.82ZM384.305 71.756C383.643 71.756 383.131 71.5747 382.769 71.212C382.427 70.828 382.257 70.3053 382.257 69.644V50.796C382.257 50.1133 382.427 49.5907 382.769 49.228C383.131 48.8653 383.643 48.684 384.305 48.684C384.966 48.684 385.467 48.8653 385.809 49.228C386.171 49.5907 386.353 50.1133 386.353 50.796V58.348H397.969V50.796C397.969 50.1133 398.139 49.5907 398.481 49.228C398.843 48.8653 399.355 48.684 400.017 48.684C400.678 48.684 401.179 48.8653 401.521 49.228C401.883 49.5907 402.065 50.1133 402.065 50.796V69.644C402.065 70.3053 401.883 70.828 401.521 71.212C401.179 71.5747 400.678 71.756 400.017 71.756C399.355 71.756 398.843 71.5747 398.481 71.212C398.139 70.828 397.969 70.3053 397.969 69.644V61.772H386.353V69.644C386.353 70.3053 386.182 70.828 385.841 71.212C385.499 71.5747 384.987 71.756 384.305 71.756ZM408.414 71.756C407.753 71.756 407.241 71.5747 406.878 71.212C406.537 70.828 406.366 70.3053 406.366 69.644V50.796C406.366 50.1133 406.537 49.5907 406.878 49.228C407.241 48.8653 407.753 48.684 408.414 48.684C409.076 48.684 409.577 48.8653 409.918 49.228C410.281 49.5907 410.462 50.1133 410.462 50.796V69.644C410.462 70.3053 410.292 70.828 409.95 71.212C409.609 71.5747 409.097 71.756 408.414 71.756ZM416.806 71.756C416.144 71.756 415.632 71.5747 415.27 71.212C414.928 70.828 414.758 70.3053 414.758 69.644V51.02C414.758 50.3373 414.939 49.8253 415.302 49.484C415.664 49.1213 416.176 48.94 416.838 48.94H424.55C427.024 48.94 428.934 49.5587 430.278 50.796C431.622 52.0333 432.294 53.7613 432.294 55.98C432.294 58.1987 431.622 59.9373 430.278 61.196C428.934 62.4333 427.024 63.052 424.55 63.052H418.854V69.644C418.854 70.3053 418.683 70.828 418.342 71.212C418 71.5747 417.488 71.756 416.806 71.756ZM418.854 59.82H423.91C425.36 59.82 426.459 59.5 427.206 58.86C427.952 58.1987 428.326 57.2387 428.326 55.98C428.326 54.7213 427.952 53.772 427.206 53.132C426.459 52.492 425.36 52.172 423.91 52.172H418.854V59.82ZM442.769 71.82C441.83 71.82 440.891 71.7453 439.953 71.596C439.014 71.468 438.129 71.2653 437.297 70.988C436.465 70.6893 435.718 70.3267 435.057 69.9C434.673 69.644 434.406 69.3347 434.257 68.972C434.107 68.6093 434.054 68.2573 434.097 67.916C434.161 67.5533 434.299 67.244 434.513 66.988C434.747 66.7107 435.035 66.54 435.377 66.476C435.718 66.412 436.091 66.508 436.497 66.764C437.435 67.3187 438.427 67.724 439.473 67.98C440.518 68.236 441.617 68.364 442.769 68.364C444.454 68.364 445.681 68.0867 446.449 67.532C447.217 66.956 447.601 66.22 447.601 65.324C447.601 64.5773 447.323 63.9907 446.769 63.564C446.235 63.1373 445.307 62.7853 443.985 62.508L440.465 61.772C438.438 61.3453 436.923 60.6307 435.921 59.628C434.939 58.604 434.449 57.26 434.449 55.596C434.449 54.5507 434.662 53.6013 435.089 52.748C435.515 51.8947 436.113 51.1587 436.881 50.54C437.67 49.9213 438.598 49.452 439.665 49.132C440.753 48.7907 441.947 48.62 443.249 48.62C444.529 48.62 445.745 48.78 446.897 49.1C448.049 49.42 449.083 49.8893 450.001 50.508C450.342 50.7427 450.566 51.0307 450.673 51.372C450.801 51.7133 450.833 52.0547 450.769 52.396C450.705 52.716 450.555 52.9933 450.321 53.228C450.086 53.4627 449.787 53.6013 449.425 53.644C449.083 53.6867 448.689 53.58 448.241 53.324C447.451 52.876 446.651 52.556 445.841 52.364C445.03 52.172 444.155 52.076 443.217 52.076C442.235 52.076 441.393 52.2147 440.689 52.492C439.985 52.7693 439.441 53.164 439.057 53.676C438.694 54.1667 438.513 54.7533 438.513 55.436C438.513 56.204 438.769 56.8227 439.281 57.292C439.793 57.74 440.667 58.092 441.905 58.348L445.393 59.084C447.505 59.532 449.073 60.236 450.097 61.196C451.142 62.156 451.665 63.436 451.665 65.036C451.665 66.06 451.451 66.988 451.025 67.82C450.619 68.652 450.022 69.3667 449.233 69.964C448.465 70.5613 447.537 71.02 446.449 71.34C445.361 71.66 444.134 71.82 442.769 71.82ZM36.14 113.5C35.436 113.5 34.892 113.319 34.508 112.956C34.1453 112.572 33.964 112.028 33.964 111.324V93.116C33.964 92.412 34.1453 91.8787 34.508 91.516C34.892 91.132 35.436 90.94 36.14 90.94H43.82C45.3987 90.94 46.7427 91.1747 47.852 91.644C48.9613 92.1133 49.804 92.7853 50.38 93.66C50.9773 94.5347 51.276 95.58 51.276 96.796C51.276 98.1613 50.8813 99.3133 50.092 100.252C49.3027 101.191 48.2253 101.82 46.86 102.14V101.66C48.4387 101.895 49.6653 102.492 50.54 103.452C51.4147 104.412 51.852 105.66 51.852 107.196C51.852 109.201 51.1693 110.759 49.804 111.868C48.46 112.956 46.5827 113.5 44.172 113.5H36.14ZM37.9 110.396H43.66C45.1107 110.396 46.1773 110.119 46.86 109.564C47.5427 108.988 47.884 108.135 47.884 107.004C47.884 105.852 47.5427 104.999 46.86 104.444C46.1773 103.889 45.1107 103.612 43.66 103.612H37.9V110.396ZM37.9 100.508H43.116C44.524 100.508 45.5693 100.241 46.252 99.708C46.956 99.1533 47.308 98.3427 47.308 97.276C47.308 96.2093 46.956 95.4093 46.252 94.876C45.5693 94.3213 44.524 94.044 43.116 94.044H37.9V100.508ZM62.373 113.756C61.7117 113.756 61.1997 113.575 60.837 113.212C60.4957 112.828 60.325 112.295 60.325 111.612V101.884L61.189 104.348L53.477 93.5C53.1997 93.116 53.0717 92.7107 53.093 92.284C53.1357 91.836 53.317 91.4627 53.637 91.164C53.957 90.844 54.405 90.684 54.981 90.684C55.4077 90.684 55.7917 90.7907 56.133 91.004C56.4957 91.2173 56.837 91.548 57.157 91.996L62.885 100.124H61.989L67.749 91.996C68.0903 91.5267 68.421 91.196 68.741 91.004C69.061 90.7907 69.4557 90.684 69.925 90.684C70.4797 90.684 70.9063 90.8333 71.205 91.132C71.525 91.4093 71.685 91.7613 71.685 92.188C71.7063 92.6147 71.557 93.0627 71.237 93.532L63.589 104.348L64.421 101.884V111.612C64.421 113.041 63.7383 113.756 62.373 113.756ZM84.2178 113.5C83.5564 113.5 83.0444 113.319 82.6818 112.956C82.3191 112.572 82.1378 112.049 82.1378 111.388V92.924C82.1378 92.2413 82.3084 91.7293 82.6498 91.388C83.0124 91.0253 83.5244 90.844 84.1858 90.844C84.8471 90.844 85.3484 91.0253 85.6898 91.388C86.0524 91.7293 86.2338 92.2413 86.2338 92.924V110.012H95.5138C96.0898 110.012 96.5271 110.161 96.8258 110.46C97.1458 110.759 97.3058 111.185 97.3058 111.74C97.3058 112.295 97.1458 112.732 96.8258 113.052C96.5271 113.351 96.0898 113.5 95.5138 113.5H84.2178ZM108.36 113.82C106.184 113.82 104.274 113.34 102.632 112.38C101.01 111.42 99.7518 110.076 98.8558 108.348C97.9598 106.599 97.5118 104.551 97.5118 102.204C97.5118 100.433 97.7678 98.844 98.2798 97.436C98.7918 96.0067 99.5171 94.7907 100.456 93.788C101.416 92.764 102.557 91.9853 103.88 91.452C105.224 90.8973 106.717 90.62 108.36 90.62C110.557 90.62 112.466 91.1 114.088 92.06C115.709 92.9987 116.968 94.332 117.864 96.06C118.76 97.788 119.208 99.8253 119.208 102.172C119.208 103.943 118.952 105.543 118.44 106.972C117.928 108.401 117.192 109.628 116.232 110.652C115.293 111.676 114.152 112.465 112.808 113.02C111.485 113.553 110.002 113.82 108.36 113.82ZM108.36 110.3C109.746 110.3 110.92 109.98 111.88 109.34C112.861 108.7 113.608 107.772 114.12 106.556C114.653 105.34 114.92 103.889 114.92 102.204C114.92 99.644 114.344 97.66 113.192 96.252C112.061 94.844 110.45 94.14 108.36 94.14C106.994 94.14 105.821 94.46 104.84 95.1C103.858 95.7187 103.101 96.636 102.568 97.852C102.056 99.0467 101.8 100.497 101.8 102.204C101.8 104.743 102.376 106.727 103.528 108.156C104.68 109.585 106.29 110.3 108.36 110.3ZM133.229 113.82C130.882 113.82 128.866 113.351 127.181 112.412C125.517 111.452 124.237 110.108 123.341 108.38C122.445 106.631 121.997 104.572 121.997 102.204C121.997 100.433 122.253 98.844 122.765 97.436C123.277 96.0067 124.013 94.7907 124.973 93.788C125.933 92.764 127.106 91.9853 128.493 91.452C129.901 90.8973 131.479 90.62 133.229 90.62C134.402 90.62 135.554 90.7693 136.685 91.068C137.815 91.3667 138.807 91.7933 139.661 92.348C140.109 92.6253 140.407 92.9667 140.557 93.372C140.706 93.756 140.738 94.14 140.653 94.524C140.567 94.8867 140.386 95.196 140.109 95.452C139.853 95.708 139.522 95.8573 139.117 95.9C138.733 95.9213 138.306 95.7827 137.837 95.484C137.175 95.0573 136.461 94.748 135.693 94.556C134.925 94.364 134.146 94.268 133.357 94.268C131.842 94.268 130.562 94.5773 129.517 95.196C128.471 95.8147 127.682 96.7107 127.149 97.884C126.615 99.0573 126.349 100.497 126.349 102.204C126.349 103.889 126.615 105.329 127.149 106.524C127.682 107.719 128.471 108.625 129.517 109.244C130.562 109.863 131.842 110.172 133.357 110.172C134.167 110.172 134.967 110.076 135.757 109.884C136.546 109.671 137.293 109.351 137.997 108.924C138.466 108.647 138.882 108.529 139.245 108.572C139.629 108.593 139.949 108.721 140.205 108.956C140.461 109.191 140.631 109.489 140.717 109.852C140.802 110.193 140.781 110.556 140.653 110.94C140.525 111.303 140.269 111.623 139.885 111.9C139.031 112.519 138.007 112.999 136.813 113.34C135.639 113.66 134.445 113.82 133.229 113.82ZM143.598 113.756C143.086 113.756 142.67 113.639 142.35 113.404C142.051 113.169 141.87 112.86 141.806 112.476C141.742 112.071 141.817 111.623 142.03 111.132L150.478 92.412C150.755 91.7933 151.086 91.356 151.47 91.1C151.875 90.8227 152.334 90.684 152.846 90.684C153.337 90.684 153.774 90.8227 154.158 91.1C154.563 91.356 154.905 91.7933 155.182 92.412L163.662 111.132C163.897 111.623 163.982 112.071 163.918 112.476C163.854 112.881 163.673 113.201 163.374 113.436C163.075 113.649 162.681 113.756 162.19 113.756C161.593 113.756 161.123 113.617 160.782 113.34C160.462 113.041 160.174 112.593 159.918 111.996L157.838 107.164L159.566 108.284H146.062L147.79 107.164L145.742 111.996C145.465 112.615 145.177 113.063 144.878 113.34C144.579 113.617 144.153 113.756 143.598 113.756ZM152.782 95.388L148.302 106.044L147.47 105.02H158.158L157.358 106.044L152.846 95.388H152.782ZM171.535 113.756C170.873 113.756 170.361 113.575 169.999 113.212C169.657 112.828 169.487 112.305 169.487 111.644V94.364H163.247C162.692 94.364 162.255 94.2147 161.935 93.916C161.636 93.596 161.487 93.1693 161.487 92.636C161.487 92.0813 161.636 91.6653 161.935 91.388C162.255 91.0893 162.692 90.94 163.247 90.94H179.823C180.377 90.94 180.804 91.0893 181.103 91.388C181.423 91.6653 181.583 92.0813 181.583 92.636C181.583 93.1693 181.423 93.596 181.103 93.916C180.804 94.2147 180.377 94.364 179.823 94.364H173.583V111.644C173.583 112.305 173.412 112.828 173.071 113.212C172.729 113.575 172.217 113.756 171.535 113.756ZM185.33 113.756C184.668 113.756 184.156 113.575 183.794 113.212C183.452 112.828 183.282 112.305 183.282 111.644V92.796C183.282 92.1133 183.452 91.5907 183.794 91.228C184.156 90.8653 184.668 90.684 185.33 90.684C185.991 90.684 186.492 90.8653 186.834 91.228C187.196 91.5907 187.378 92.1133 187.378 92.796V111.644C187.378 112.305 187.207 112.828 186.866 113.212C186.524 113.575 186.012 113.756 185.33 113.756ZM201.785 113.82C199.609 113.82 197.699 113.34 196.057 112.38C194.435 111.42 193.177 110.076 192.281 108.348C191.385 106.599 190.937 104.551 190.937 102.204C190.937 100.433 191.193 98.844 191.705 97.436C192.217 96.0067 192.942 94.7907 193.881 93.788C194.841 92.764 195.982 91.9853 197.305 91.452C198.649 90.8973 200.142 90.62 201.785 90.62C203.982 90.62 205.891 91.1 207.513 92.06C209.134 92.9987 210.393 94.332 211.289 96.06C212.185 97.788 212.633 99.8253 212.633 102.172C212.633 103.943 212.377 105.543 211.865 106.972C211.353 108.401 210.617 109.628 209.657 110.652C208.718 111.676 207.577 112.465 206.233 113.02C204.91 113.553 203.427 113.82 201.785 113.82ZM201.785 110.3C203.171 110.3 204.345 109.98 205.305 109.34C206.286 108.7 207.033 107.772 207.545 106.556C208.078 105.34 208.345 103.889 208.345 102.204C208.345 99.644 207.769 97.66 206.617 96.252C205.486 94.844 203.875 94.14 201.785 94.14C200.419 94.14 199.246 94.46 198.265 95.1C197.283 95.7187 196.526 96.636 195.993 97.852C195.481 99.0467 195.225 100.497 195.225 102.204C195.225 104.743 195.801 106.727 196.953 108.156C198.105 109.585 199.715 110.3 201.785 110.3ZM218.078 113.756C217.459 113.756 216.979 113.585 216.638 113.244C216.318 112.903 216.158 112.412 216.158 111.772V92.732C216.158 92.0707 216.318 91.5693 216.638 91.228C216.979 90.8653 217.416 90.684 217.95 90.684C218.44 90.684 218.803 90.78 219.038 90.972C219.294 91.1427 219.592 91.4413 219.934 91.868L232.19 107.772H231.358V92.636C231.358 92.0173 231.518 91.5373 231.838 91.196C232.179 90.8547 232.659 90.684 233.278 90.684C233.896 90.684 234.366 90.8547 234.686 91.196C235.006 91.5373 235.166 92.0173 235.166 92.636V111.836C235.166 112.433 235.016 112.903 234.718 113.244C234.419 113.585 234.014 113.756 233.502 113.756C233.011 113.756 232.616 113.66 232.318 113.468C232.04 113.276 231.731 112.967 231.39 112.54L219.166 96.636H219.966V111.772C219.966 112.412 219.806 112.903 219.486 113.244C219.166 113.585 218.696 113.756 218.078 113.756ZM241.503 116.924C241.226 117.265 240.927 117.457 240.607 117.5C240.309 117.564 240.042 117.511 239.807 117.34C239.573 117.169 239.445 116.924 239.423 116.604C239.402 116.305 239.541 115.975 239.839 115.612C240.266 115.079 240.554 114.545 240.703 114.012C240.853 113.479 240.927 112.999 240.927 112.572L241.087 113.66C240.341 113.66 239.733 113.447 239.263 113.02C238.815 112.572 238.591 111.985 238.591 111.26C238.591 110.577 238.805 110.023 239.231 109.596C239.658 109.148 240.234 108.924 240.959 108.924C241.706 108.924 242.293 109.18 242.719 109.692C243.146 110.183 243.359 110.897 243.359 111.836C243.359 112.348 243.306 112.881 243.199 113.436C243.114 113.969 242.933 114.524 242.655 115.1C242.399 115.697 242.015 116.305 241.503 116.924ZM262.576 113.82C261.638 113.82 260.699 113.745 259.76 113.596C258.822 113.468 257.936 113.265 257.104 112.988C256.272 112.689 255.526 112.327 254.864 111.9C254.48 111.644 254.214 111.335 254.064 110.972C253.915 110.609 253.862 110.257 253.904 109.916C253.968 109.553 254.107 109.244 254.32 108.988C254.555 108.711 254.843 108.54 255.184 108.476C255.526 108.412 255.899 108.508 256.304 108.764C257.243 109.319 258.235 109.724 259.28 109.98C260.326 110.236 261.424 110.364 262.576 110.364C264.262 110.364 265.488 110.087 266.256 109.532C267.024 108.956 267.408 108.22 267.408 107.324C267.408 106.577 267.131 105.991 266.576 105.564C266.043 105.137 265.115 104.785 263.792 104.508L260.272 103.772C258.246 103.345 256.731 102.631 255.728 101.628C254.747 100.604 254.256 99.26 254.256 97.596C254.256 96.5507 254.47 95.6013 254.896 94.748C255.323 93.8947 255.92 93.1587 256.688 92.54C257.478 91.9213 258.406 91.452 259.472 91.132C260.56 90.7907 261.755 90.62 263.056 90.62C264.336 90.62 265.552 90.78 266.704 91.1C267.856 91.42 268.891 91.8893 269.808 92.508C270.15 92.7427 270.374 93.0307 270.48 93.372C270.608 93.7133 270.64 94.0547 270.576 94.396C270.512 94.716 270.363 94.9933 270.128 95.228C269.894 95.4627 269.595 95.6013 269.232 95.644C268.891 95.6867 268.496 95.58 268.048 95.324C267.259 94.876 266.459 94.556 265.648 94.364C264.838 94.172 263.963 94.076 263.024 94.076C262.043 94.076 261.2 94.2147 260.496 94.492C259.792 94.7693 259.248 95.164 258.864 95.676C258.502 96.1667 258.32 96.7533 258.32 97.436C258.32 98.204 258.576 98.8227 259.088 99.292C259.6 99.74 260.475 100.092 261.712 100.348L265.2 101.084C267.312 101.532 268.88 102.236 269.904 103.196C270.95 104.156 271.472 105.436 271.472 107.036C271.472 108.06 271.259 108.988 270.832 109.82C270.427 110.652 269.83 111.367 269.04 111.964C268.272 112.561 267.344 113.02 266.256 113.34C265.168 113.66 263.942 113.82 262.576 113.82ZM276.524 113.5C275.82 113.5 275.276 113.319 274.892 112.956C274.529 112.572 274.348 112.028 274.348 111.324V93.116C274.348 92.412 274.529 91.8787 274.892 91.516C275.276 91.132 275.82 90.94 276.524 90.94H287.948C288.481 90.94 288.886 91.0787 289.164 91.356C289.462 91.6333 289.612 92.028 289.612 92.54C289.612 93.0733 289.462 93.4893 289.164 93.788C288.886 94.0653 288.481 94.204 287.948 94.204H278.284V100.412H287.244C287.798 100.412 288.214 100.551 288.492 100.828C288.769 101.105 288.908 101.511 288.908 102.044C288.908 102.577 288.769 102.983 288.492 103.26C288.214 103.537 287.798 103.676 287.244 103.676H278.284V110.236H287.948C288.481 110.236 288.886 110.375 289.164 110.652C289.462 110.929 289.612 111.335 289.612 111.868C289.612 112.401 289.462 112.807 289.164 113.084C288.886 113.361 288.481 113.5 287.948 113.5H276.524ZM303.266 113.82C300.92 113.82 298.904 113.351 297.218 112.412C295.554 111.452 294.274 110.108 293.378 108.38C292.482 106.631 292.034 104.572 292.034 102.204C292.034 100.433 292.29 98.844 292.802 97.436C293.314 96.0067 294.05 94.7907 295.01 93.788C295.97 92.764 297.144 91.9853 298.53 91.452C299.938 90.8973 301.517 90.62 303.266 90.62C304.44 90.62 305.592 90.7693 306.722 91.068C307.853 91.3667 308.845 91.7933 309.698 92.348C310.146 92.6253 310.445 92.9667 310.594 93.372C310.744 93.756 310.776 94.14 310.69 94.524C310.605 94.8867 310.424 95.196 310.146 95.452C309.89 95.708 309.56 95.8573 309.154 95.9C308.77 95.9213 308.344 95.7827 307.874 95.484C307.213 95.0573 306.498 94.748 305.73 94.556C304.962 94.364 304.184 94.268 303.394 94.268C301.88 94.268 300.6 94.5773 299.554 95.196C298.509 95.8147 297.72 96.7107 297.186 97.884C296.653 99.0573 296.386 100.497 296.386 102.204C296.386 103.889 296.653 105.329 297.186 106.524C297.72 107.719 298.509 108.625 299.554 109.244C300.6 109.863 301.88 110.172 303.394 110.172C304.205 110.172 305.005 110.076 305.794 109.884C306.584 109.671 307.33 109.351 308.034 108.924C308.504 108.647 308.92 108.529 309.282 108.572C309.666 108.593 309.986 108.721 310.242 108.956C310.498 109.191 310.669 109.489 310.754 109.852C310.84 110.193 310.818 110.556 310.69 110.94C310.562 111.303 310.306 111.623 309.922 111.9C309.069 112.519 308.045 112.999 306.85 113.34C305.677 113.66 304.482 113.82 303.266 113.82ZM321.056 113.756C320.394 113.756 319.882 113.575 319.52 113.212C319.178 112.828 319.008 112.305 319.008 111.644V94.364H312.768C312.213 94.364 311.776 94.2147 311.456 93.916C311.157 93.596 311.008 93.1693 311.008 92.636C311.008 92.0813 311.157 91.6653 311.456 91.388C311.776 91.0893 312.213 90.94 312.768 90.94H329.344C329.898 90.94 330.325 91.0893 330.624 91.388C330.944 91.6653 331.104 92.0813 331.104 92.636C331.104 93.1693 330.944 93.596 330.624 93.916C330.325 94.2147 329.898 94.364 329.344 94.364H323.104V111.644C323.104 112.305 322.933 112.828 322.592 113.212C322.25 113.575 321.738 113.756 321.056 113.756ZM341.54 113.82C339.364 113.82 337.454 113.34 335.812 112.38C334.19 111.42 332.932 110.076 332.036 108.348C331.14 106.599 330.692 104.551 330.692 102.204C330.692 100.433 330.948 98.844 331.46 97.436C331.972 96.0067 332.697 94.7907 333.636 93.788C334.596 92.764 335.737 91.9853 337.06 91.452C338.404 90.8973 339.897 90.62 341.54 90.62C343.737 90.62 345.646 91.1 347.268 92.06C348.889 92.9987 350.148 94.332 351.044 96.06C351.94 97.788 352.388 99.8253 352.388 102.172C352.388 103.943 352.132 105.543 351.62 106.972C351.108 108.401 350.372 109.628 349.412 110.652C348.473 111.676 347.332 112.465 345.988 113.02C344.665 113.553 343.182 113.82 341.54 113.82ZM341.54 110.3C342.926 110.3 344.1 109.98 345.06 109.34C346.041 108.7 346.788 107.772 347.3 106.556C347.833 105.34 348.1 103.889 348.1 102.204C348.1 99.644 347.524 97.66 346.372 96.252C345.241 94.844 343.63 94.14 341.54 94.14C340.174 94.14 339.001 94.46 338.02 95.1C337.038 95.7187 336.281 96.636 335.748 97.852C335.236 99.0467 334.98 100.497 334.98 102.204C334.98 104.743 335.556 106.727 336.708 108.156C337.86 109.585 339.47 110.3 341.54 110.3ZM357.961 113.756C357.299 113.756 356.787 113.575 356.425 113.212C356.083 112.828 355.913 112.305 355.913 111.644V93.02C355.913 92.3373 356.094 91.8253 356.457 91.484C356.819 91.1213 357.331 90.94 357.993 90.94H365.705C368.179 90.94 370.089 91.5373 371.433 92.732C372.777 93.9053 373.449 95.5587 373.449 97.692C373.449 99.0787 373.139 100.273 372.521 101.276C371.923 102.279 371.049 103.047 369.897 103.58C368.745 104.113 367.347 104.38 365.705 104.38L365.993 103.9H367.049C367.923 103.9 368.681 104.113 369.321 104.54C369.982 104.967 370.558 105.639 371.049 106.556L373.449 111.004C373.705 111.452 373.822 111.889 373.801 112.316C373.779 112.743 373.619 113.095 373.321 113.372C373.022 113.628 372.585 113.756 372.009 113.756C371.433 113.756 370.963 113.639 370.601 113.404C370.238 113.148 369.918 112.764 369.641 112.252L366.409 106.3C366.025 105.575 365.566 105.095 365.033 104.86C364.521 104.604 363.859 104.476 363.049 104.476H360.009V111.644C360.009 112.305 359.838 112.828 359.497 113.212C359.155 113.575 358.643 113.756 357.961 113.756ZM360.009 101.436H365.001C366.473 101.436 367.582 101.137 368.329 100.54C369.097 99.9213 369.481 99.004 369.481 97.788C369.481 96.5933 369.097 95.6973 368.329 95.1C367.582 94.4813 366.473 94.172 365.001 94.172H360.009V101.436ZM379.352 116.924C379.075 117.265 378.776 117.457 378.456 117.5C378.157 117.564 377.891 117.511 377.656 117.34C377.421 117.169 377.293 116.924 377.272 116.604C377.251 116.305 377.389 115.975 377.688 115.612C378.115 115.079 378.403 114.545 378.552 114.012C378.701 113.479 378.776 112.999 378.776 112.572L378.936 113.66C378.189 113.66 377.581 113.447 377.112 113.02C376.664 112.572 376.44 111.985 376.44 111.26C376.44 110.577 376.653 110.023 377.08 109.596C377.507 109.148 378.083 108.924 378.808 108.924C379.555 108.924 380.141 109.18 380.568 109.692C380.995 110.183 381.208 110.897 381.208 111.836C381.208 112.348 381.155 112.881 381.048 113.436C380.963 113.969 380.781 114.524 380.504 115.1C380.248 115.697 379.864 116.305 379.352 116.924ZM402.761 113.82C400.585 113.82 398.676 113.34 397.033 112.38C395.412 111.42 394.153 110.076 393.257 108.348C392.361 106.599 391.913 104.551 391.913 102.204C391.913 100.433 392.169 98.844 392.681 97.436C393.193 96.0067 393.918 94.7907 394.857 93.788C395.817 92.764 396.958 91.9853 398.281 91.452C399.625 90.8973 401.118 90.62 402.761 90.62C404.958 90.62 406.868 91.1 408.489 92.06C410.11 92.9987 411.369 94.332 412.265 96.06C413.161 97.788 413.609 99.8253 413.609 102.172C413.609 103.943 413.353 105.543 412.841 106.972C412.329 108.401 411.593 109.628 410.633 110.652C409.694 111.676 408.553 112.465 407.209 113.02C405.886 113.553 404.404 113.82 402.761 113.82ZM402.761 110.3C404.148 110.3 405.321 109.98 406.281 109.34C407.262 108.7 408.009 107.772 408.521 106.556C409.054 105.34 409.321 103.889 409.321 102.204C409.321 99.644 408.745 97.66 407.593 96.252C406.462 94.844 404.852 94.14 402.761 94.14C401.396 94.14 400.222 94.46 399.241 95.1C398.26 95.7187 397.502 96.636 396.969 97.852C396.457 99.0467 396.201 100.497 396.201 102.204C396.201 104.743 396.777 106.727 397.929 108.156C399.081 109.585 400.692 110.3 402.761 110.3ZM419.182 113.756C418.521 113.756 418.009 113.575 417.646 113.212C417.305 112.828 417.134 112.305 417.134 111.644V93.02C417.134 92.3373 417.315 91.8253 417.678 91.484C418.041 91.1213 418.553 90.94 419.214 90.94H426.926C429.401 90.94 431.31 91.5373 432.654 92.732C433.998 93.9053 434.67 95.5587 434.67 97.692C434.67 99.0787 434.361 100.273 433.742 101.276C433.145 102.279 432.27 103.047 431.118 103.58C429.966 104.113 428.569 104.38 426.926 104.38L427.214 103.9H428.27C429.145 103.9 429.902 104.113 430.542 104.54C431.203 104.967 431.779 105.639 432.27 106.556L434.67 111.004C434.926 111.452 435.043 111.889 435.022 112.316C435.001 112.743 434.841 113.095 434.542 113.372C434.243 113.628 433.806 113.756 433.23 113.756C432.654 113.756 432.185 113.639 431.822 113.404C431.459 113.148 431.139 112.764 430.862 112.252L427.63 106.3C427.246 105.575 426.787 105.095 426.254 104.86C425.742 104.604 425.081 104.476 424.27 104.476H421.23V111.644C421.23 112.305 421.059 112.828 420.718 113.212C420.377 113.575 419.865 113.756 419.182 113.756ZM421.23 101.436H426.222C427.694 101.436 428.803 101.137 429.55 100.54C430.318 99.9213 430.702 99.004 430.702 97.788C430.702 96.5933 430.318 95.6973 429.55 95.1C428.803 94.4813 427.694 94.172 426.222 94.172H421.23V101.436ZM41.74 155.82C40.8013 155.82 39.8627 155.745 38.924 155.596C37.9853 155.468 37.1 155.265 36.268 154.988C35.436 154.689 34.6893 154.327 34.028 153.9C33.644 153.644 33.3773 153.335 33.228 152.972C33.0787 152.609 33.0253 152.257 33.068 151.916C33.132 151.553 33.2707 151.244 33.484 150.988C33.7187 150.711 34.0067 150.54 34.348 150.476C34.6893 150.412 35.0627 150.508 35.468 150.764C36.4067 151.319 37.3987 151.724 38.444 151.98C39.4893 152.236 40.588 152.364 41.74 152.364C43.4253 152.364 44.652 152.087 45.42 151.532C46.188 150.956 46.572 150.22 46.572 149.324C46.572 148.577 46.2947 147.991 45.74 147.564C45.2067 147.137 44.2787 146.785 42.956 146.508L39.436 145.772C37.4093 145.345 35.8947 144.631 34.892 143.628C33.9107 142.604 33.42 141.26 33.42 139.596C33.42 138.551 33.6333 137.601 34.06 136.748C34.4867 135.895 35.084 135.159 35.852 134.54C36.6413 133.921 37.5693 133.452 38.636 133.132C39.724 132.791 40.9187 132.62 42.22 132.62C43.5 132.62 44.716 132.78 45.868 133.1C47.02 133.42 48.0547 133.889 48.972 134.508C49.3133 134.743 49.5373 135.031 49.644 135.372C49.772 135.713 49.804 136.055 49.74 136.396C49.676 136.716 49.5267 136.993 49.292 137.228C49.0573 137.463 48.7587 137.601 48.396 137.644C48.0547 137.687 47.66 137.58 47.212 137.324C46.4227 136.876 45.6227 136.556 44.812 136.364C44.0013 136.172 43.1267 136.076 42.188 136.076C41.2067 136.076 40.364 136.215 39.66 136.492C38.956 136.769 38.412 137.164 38.028 137.676C37.6653 138.167 37.484 138.753 37.484 139.436C37.484 140.204 37.74 140.823 38.252 141.292C38.764 141.74 39.6387 142.092 40.876 142.348L44.364 143.084C46.476 143.532 48.044 144.236 49.068 145.196C50.1133 146.156 50.636 147.436 50.636 149.036C50.636 150.06 50.4227 150.988 49.996 151.82C49.5907 152.652 48.9933 153.367 48.204 153.964C47.436 154.561 46.508 155.02 45.42 155.34C44.332 155.66 43.1053 155.82 41.74 155.82ZM53.5793 155.756C53.0673 155.756 52.6513 155.639 52.3313 155.404C52.0326 155.169 51.8513 154.86 51.7873 154.476C51.7233 154.071 51.7979 153.623 52.0113 153.132L60.4593 134.412C60.7366 133.793 61.0673 133.356 61.4513 133.1C61.8566 132.823 62.3153 132.684 62.8273 132.684C63.3179 132.684 63.7553 132.823 64.1393 133.1C64.5446 133.356 64.8859 133.793 65.1633 134.412L73.6433 153.132C73.8779 153.623 73.9633 154.071 73.8993 154.476C73.8353 154.881 73.6539 155.201 73.3553 155.436C73.0566 155.649 72.6619 155.756 72.1713 155.756C71.5739 155.756 71.1046 155.617 70.7633 155.34C70.4433 155.041 70.1553 154.593 69.8993 153.996L67.8193 149.164L69.5473 150.284H56.0433L57.7713 149.164L55.7233 153.996C55.4459 154.615 55.1579 155.063 54.8593 155.34C54.5606 155.617 54.1339 155.756 53.5793 155.756ZM62.7633 137.388L58.2833 148.044L57.4513 147.02H68.1393L67.3393 148.044L62.8273 137.388H62.7633ZM78.6078 155.5C77.9464 155.5 77.4344 155.319 77.0718 154.956C76.7091 154.572 76.5278 154.049 76.5278 153.388V134.924C76.5278 134.241 76.6984 133.729 77.0398 133.388C77.4024 133.025 77.9144 132.844 78.5758 132.844C79.2371 132.844 79.7384 133.025 80.0798 133.388C80.4424 133.729 80.6238 134.241 80.6238 134.924V152.012H89.9038C90.4798 152.012 90.9171 152.161 91.2158 152.46C91.5358 152.759 91.6958 153.185 91.6958 153.74C91.6958 154.295 91.5358 154.732 91.2158 155.052C90.9171 155.351 90.4798 155.5 89.9038 155.5H78.6078ZM93.5805 155.756C93.0685 155.756 92.6525 155.639 92.3325 155.404C92.0338 155.169 91.8525 154.86 91.7885 154.476C91.7245 154.071 91.7992 153.623 92.0125 153.132L100.461 134.412C100.738 133.793 101.069 133.356 101.453 133.1C101.858 132.823 102.317 132.684 102.829 132.684C103.319 132.684 103.757 132.823 104.141 133.1C104.546 133.356 104.887 133.793 105.165 134.412L113.645 153.132C113.879 153.623 113.965 154.071 113.901 154.476C113.837 154.881 113.655 155.201 113.357 155.436C113.058 155.649 112.663 155.756 112.173 155.756C111.575 155.756 111.106 155.617 110.765 155.34C110.445 155.041 110.157 154.593 109.901 153.996L107.821 149.164L109.549 150.284H96.0445L97.7725 149.164L95.7245 153.996C95.4472 154.615 95.1592 155.063 94.8605 155.34C94.5618 155.617 94.1352 155.756 93.5805 155.756ZM102.765 137.388L98.2845 148.044L97.4525 147.02H108.141L107.341 148.044L102.829 137.388H102.765ZM118.577 155.756C117.916 155.756 117.404 155.575 117.041 155.212C116.7 154.828 116.529 154.305 116.529 153.644V135.02C116.529 134.337 116.71 133.825 117.073 133.484C117.436 133.121 117.948 132.94 118.609 132.94H126.321C128.796 132.94 130.705 133.537 132.049 134.732C133.393 135.905 134.065 137.559 134.065 139.692C134.065 141.079 133.756 142.273 133.137 143.276C132.54 144.279 131.665 145.047 130.513 145.58C129.361 146.113 127.964 146.38 126.321 146.38L126.609 145.9H127.665C128.54 145.9 129.297 146.113 129.937 146.54C130.598 146.967 131.174 147.639 131.665 148.556L134.065 153.004C134.321 153.452 134.438 153.889 134.417 154.316C134.396 154.743 134.236 155.095 133.937 155.372C133.638 155.628 133.201 155.756 132.625 155.756C132.049 155.756 131.58 155.639 131.217 155.404C130.854 155.148 130.534 154.764 130.257 154.252L127.025 148.3C126.641 147.575 126.182 147.095 125.649 146.86C125.137 146.604 124.476 146.476 123.665 146.476H120.625V153.644C120.625 154.305 120.454 154.828 120.113 155.212C119.772 155.575 119.26 155.756 118.577 155.756ZM120.625 143.436H125.617C127.089 143.436 128.198 143.137 128.945 142.54C129.713 141.921 130.097 141.004 130.097 139.788C130.097 138.593 129.713 137.697 128.945 137.1C128.198 136.481 127.089 136.172 125.617 136.172H120.625V143.436ZM145.001 155.756C144.339 155.756 143.827 155.575 143.465 155.212C143.123 154.828 142.953 154.295 142.953 153.612V143.884L143.817 146.348L136.105 135.5C135.827 135.116 135.699 134.711 135.721 134.284C135.763 133.836 135.945 133.463 136.265 133.164C136.585 132.844 137.033 132.684 137.609 132.684C138.035 132.684 138.419 132.791 138.761 133.004C139.123 133.217 139.465 133.548 139.785 133.996L145.513 142.124H144.617L150.377 133.996C150.718 133.527 151.049 133.196 151.369 133.004C151.689 132.791 152.083 132.684 152.553 132.684C153.107 132.684 153.534 132.833 153.833 133.132C154.153 133.409 154.313 133.761 154.313 134.188C154.334 134.615 154.185 135.063 153.865 135.532L146.217 146.348L147.049 143.884V153.612C147.049 155.041 146.366 155.756 145.001 155.756Z" fill="white"/>
<rect x="238.5" y="155.5" width="635" height="68.3905" rx="34.1953" fill="white" stroke="#E4E4ED"/>
<g opacity="0.7">
<path d="M284.83 195.746L280.285 191.202C281.68 189.611 282.45 187.599 282.45 185.464C282.45 183.133 281.542 180.942 279.894 179.294C278.246 177.647 276.055 176.739 273.725 176.739C271.394 176.739 269.203 177.647 267.556 179.294C265.908 180.942 265 183.133 265 185.464C265 187.794 265.908 189.985 267.556 191.633C269.203 193.281 271.394 194.189 273.725 194.189C275.86 194.189 277.872 193.419 279.463 192.024L284.007 196.569C284.121 196.682 284.27 196.739 284.418 196.739C284.567 196.739 284.716 196.682 284.83 196.569C285.057 196.341 285.057 195.973 284.83 195.746ZM268.378 190.81C266.95 189.382 266.163 187.483 266.163 185.464C266.163 183.444 266.95 181.545 268.378 180.117C269.806 178.689 271.705 177.902 273.725 177.902C275.744 177.902 277.643 178.689 279.072 180.117C280.5 181.545 281.286 183.444 281.286 185.464C281.286 187.483 280.5 189.382 279.072 190.81C277.643 192.239 275.744 193.025 273.725 193.025C271.705 193.025 269.806 192.239 268.378 190.81Z" fill="#171728"/>
</g>
<path opacity="0.7" d="M301.814 193.739H297.512V180.725H301.742C305.63 180.725 308.258 183.353 308.258 187.241C308.258 191.111 305.666 193.739 301.814 193.739ZM301.616 182.345H299.276V192.101H301.688C304.586 192.101 306.422 190.229 306.422 187.241C306.422 184.217 304.586 182.345 301.616 182.345ZM314.012 193.955C311.42 193.955 309.638 192.083 309.638 189.347C309.638 186.593 311.384 184.685 313.94 184.685C316.442 184.685 318.08 186.413 318.08 189.023V189.653L311.276 189.671C311.402 191.525 312.374 192.551 314.048 192.551C315.362 192.551 316.226 192.011 316.514 191.003H318.098C317.666 192.893 316.19 193.955 314.012 193.955ZM313.94 186.107C312.464 186.107 311.528 186.989 311.312 188.537H316.388C316.388 187.079 315.434 186.107 313.94 186.107ZM319.412 189.113C319.412 186.629 321.014 184.685 323.57 184.685C324.992 184.685 326.09 185.333 326.648 186.431L326.774 184.937H328.286V193.379C328.286 196.151 326.576 197.915 323.876 197.915C321.482 197.915 319.844 196.565 319.52 194.333H321.212C321.428 195.629 322.4 196.385 323.876 196.385C325.532 196.385 326.612 195.305 326.612 193.631V191.867C326.036 192.893 324.884 193.505 323.498 193.505C320.996 193.505 319.412 191.579 319.412 189.113ZM321.104 189.077C321.104 190.733 322.13 192.029 323.786 192.029C325.496 192.029 326.54 190.805 326.54 189.077C326.54 187.385 325.532 186.161 323.804 186.161C322.112 186.161 321.104 187.457 321.104 189.077ZM335.768 184.865V186.413H335.012C333.41 186.413 332.42 187.385 332.42 189.077V193.739H330.728V184.955H332.312L332.42 186.287C332.78 185.369 333.662 184.757 334.868 184.757C335.174 184.757 335.426 184.793 335.768 184.865ZM340.836 193.955C338.244 193.955 336.462 192.083 336.462 189.347C336.462 186.593 338.208 184.685 340.764 184.685C343.266 184.685 344.904 186.413 344.904 189.023V189.653L338.1 189.671C338.226 191.525 339.198 192.551 340.872 192.551C342.186 192.551 343.05 192.011 343.338 191.003H344.922C344.49 192.893 343.014 193.955 340.836 193.955ZM340.764 186.107C339.288 186.107 338.352 186.989 338.136 188.537H343.212C343.212 187.079 342.258 186.107 340.764 186.107ZM350.592 193.955C348 193.955 346.218 192.083 346.218 189.347C346.218 186.593 347.964 184.685 350.52 184.685C353.022 184.685 354.66 186.413 354.66 189.023V189.653L347.856 189.671C347.982 191.525 348.954 192.551 350.628 192.551C351.942 192.551 352.806 192.011 353.094 191.003H354.678C354.246 192.893 352.77 193.955 350.592 193.955ZM350.52 186.107C349.044 186.107 348.108 186.989 347.892 188.537H352.968C352.968 187.079 352.014 186.107 350.52 186.107ZM362.3 193.739H360.464L365.216 180.725H367.178L371.948 193.739H370.094L368.924 190.499H363.452L362.3 193.739ZM365.972 183.533L363.992 188.969H368.402L366.404 183.533C366.314 183.281 366.224 182.975 366.188 182.777C366.152 182.957 366.062 183.263 365.972 183.533ZM373.39 197.681V184.937H374.92L375.046 186.521C375.64 185.315 376.828 184.685 378.232 184.685C380.752 184.685 382.318 186.575 382.318 189.275C382.318 191.957 380.842 193.973 378.232 193.973C376.828 193.973 375.658 193.379 375.082 192.299V197.681H373.39ZM375.1 189.347C375.1 191.147 376.144 192.443 377.872 192.443C379.6 192.443 380.626 191.147 380.626 189.347C380.626 187.529 379.6 186.233 377.872 186.233C376.144 186.233 375.1 187.511 375.1 189.347ZM384.183 197.681V184.937H385.713L385.839 186.521C386.433 185.315 387.621 184.685 389.025 184.685C391.545 184.685 393.111 186.575 393.111 189.275C393.111 191.957 391.635 193.973 389.025 193.973C387.621 193.973 386.451 193.379 385.875 192.299V197.681H384.183ZM385.893 189.347C385.893 191.147 386.937 192.443 388.665 192.443C390.393 192.443 391.419 191.147 391.419 189.347C391.419 187.529 390.393 186.233 388.665 186.233C386.937 186.233 385.893 187.511 385.893 189.347ZM400.016 184.865V186.413H399.26C397.658 186.413 396.668 187.385 396.668 189.077V193.739H394.976V184.955H396.56L396.668 186.287C397.028 185.369 397.91 184.757 399.116 184.757C399.422 184.757 399.674 184.793 400.016 184.865ZM405.085 193.955C402.493 193.955 400.711 192.083 400.711 189.347C400.711 186.593 402.457 184.685 405.013 184.685C407.515 184.685 409.152 186.413 409.152 189.023V189.653L402.349 189.671C402.475 191.525 403.447 192.551 405.121 192.551C406.435 192.551 407.299 192.011 407.587 191.003H409.171C408.739 192.893 407.263 193.955 405.085 193.955ZM405.013 186.107C403.537 186.107 402.601 186.989 402.385 188.537H407.461C407.461 187.079 406.507 186.107 405.013 186.107ZM412.734 193.739H411.042V184.937H412.572L412.752 186.287C413.31 185.279 414.426 184.685 415.668 184.685C417.99 184.685 419.052 186.107 419.052 188.357V193.739H417.36V188.735C417.36 186.953 416.532 186.233 415.236 186.233C413.652 186.233 412.734 187.367 412.734 189.077V193.739ZM423.88 193.739H422.188V186.359H420.46V184.937H422.188V182.183H423.88V184.937H425.608V186.359H423.88V193.739ZM427.954 182.849C427.342 182.849 426.838 182.345 426.838 181.733C426.838 181.103 427.342 180.617 427.954 180.617C428.566 180.617 429.07 181.103 429.07 181.733C429.07 182.345 428.566 182.849 427.954 182.849ZM427.126 193.739V184.937H428.818V193.739H427.126ZM430.699 189.347C430.699 186.593 432.445 184.685 435.019 184.685C437.233 184.685 438.781 185.945 439.087 187.907H437.395C437.107 186.791 436.207 186.197 435.073 186.197C433.471 186.197 432.373 187.421 432.373 189.329C432.373 191.219 433.399 192.443 435.001 192.443C436.207 192.443 437.107 191.813 437.413 190.769H439.105C438.763 192.677 437.125 193.955 435.001 193.955C432.409 193.955 430.699 192.119 430.699 189.347ZM444.688 193.955C442.096 193.955 440.314 192.083 440.314 189.347C440.314 186.593 442.06 184.685 444.616 184.685C447.118 184.685 448.756 186.413 448.756 189.023V189.653L441.952 189.671C442.078 191.525 443.05 192.551 444.724 192.551C446.038 192.551 446.902 192.011 447.19 191.003H448.774C448.342 192.893 446.866 193.955 444.688 193.955ZM444.616 186.107C443.14 186.107 442.204 186.989 441.988 188.537H447.064C447.064 187.079 446.11 186.107 444.616 186.107ZM449.926 191.183H451.546C451.546 192.083 452.23 192.623 453.346 192.623C454.534 192.623 455.218 192.137 455.218 191.327C455.218 190.733 454.93 190.373 454.012 190.139L452.464 189.779C450.898 189.401 450.16 188.627 450.16 187.331C450.16 185.711 451.528 184.685 453.472 184.685C455.398 184.685 456.658 185.765 456.694 187.439H455.074C455.038 186.557 454.444 185.999 453.418 185.999C452.356 185.999 451.762 186.467 451.762 187.277C451.762 187.871 452.194 188.267 453.058 188.483L454.606 188.861C456.1 189.221 456.838 189.905 456.838 191.219C456.838 192.893 455.398 193.955 453.31 193.955C451.24 193.955 449.926 192.857 449.926 191.183ZM460.406 193.721H458.714V180.491H460.406V186.287C460.964 185.333 462.026 184.685 463.394 184.685C465.644 184.685 466.724 186.107 466.724 188.357V193.739H465.032V188.735C465.032 186.953 464.186 186.233 462.926 186.233C461.288 186.233 460.406 187.421 460.406 188.933V193.721ZM469.896 182.849C469.284 182.849 468.78 182.345 468.78 181.733C468.78 181.103 469.284 180.617 469.896 180.617C470.508 180.617 471.012 181.103 471.012 181.733C471.012 182.345 470.508 182.849 469.896 182.849ZM469.068 193.739V184.937H470.76V193.739H469.068ZM473.216 197.681V184.937H474.746L474.872 186.521C475.466 185.315 476.654 184.685 478.058 184.685C480.578 184.685 482.144 186.575 482.144 189.275C482.144 191.957 480.668 193.973 478.058 193.973C476.654 193.973 475.484 193.379 474.908 192.299V197.681H473.216ZM474.926 189.347C474.926 191.147 475.97 192.443 477.698 192.443C479.426 192.443 480.452 191.147 480.452 189.347C480.452 187.529 479.426 186.233 477.698 186.233C475.97 186.233 474.926 187.511 474.926 189.347Z" fill="#171728"/>
</g>
<defs>
<clipPath id="clip0_2316_528">
<rect y="0.5" width="526" height="296" rx="32" fill="white"/>
</clipPath>
</defs>
</svg>
