<svg width="34" height="35" viewBox="0 0 34 35" fill="none" xmlns="http://www.w3.org/2000/svg">
<rect x="0.5" y="1" width="33" height="33" rx="7.5" stroke="#282D45"/>
<path d="M17.4549 8.51519C18.5847 8.5 19.7081 8.509 20.8301 8.5C20.8981 9.64812 21.3733 10.8176 22.3406 11.6294C23.3059 12.4613 24.6714 12.8422 26 12.971V15.9912C24.7549 15.9558 23.5041 15.7308 22.3743 15.265C21.8822 15.0715 21.4238 14.8223 20.9751 14.5674C20.9693 16.7591 20.9855 18.9479 20.9589 21.1305C20.8916 22.179 20.4934 23.2225 19.7916 24.0866C18.6624 25.525 16.7026 26.4627 14.6896 26.492C13.455 26.5533 12.2216 26.2608 11.1694 25.7219C9.42586 24.8286 8.19894 23.1933 8.02024 21.4382C7.99952 21.063 7.9924 20.6883 8.00988 20.3221C8.16527 18.895 8.97782 17.5297 10.2391 16.601C11.6686 15.5192 13.6712 15.004 15.5462 15.3089C15.5637 16.4199 15.5126 17.5297 15.5126 18.6407C14.656 18.4 13.655 18.4675 12.9066 18.9192C12.3601 19.2269 11.9451 19.6983 11.7288 20.2316C11.5502 20.6118 11.6013 21.0343 11.6117 21.4382C11.8169 22.669 13.1791 23.7035 14.6333 23.5916C15.5974 23.5826 16.5213 23.0965 17.0237 22.3849C17.1862 22.1357 17.3682 21.8809 17.3779 21.5878C17.4627 20.2462 17.429 18.9102 17.4394 17.5685C17.4465 14.5449 17.429 11.5298 17.4556 8.51575L17.4549 8.51519Z" fill="#8F9BB7"/>
</svg>
