<svg width="232" height="73" viewBox="0 0 232 73" fill="none" xmlns="http://www.w3.org/2000/svg">
<path d="M9.32 51.5L0.6 22.26H5.92L10.56 37.7C11 39.3 11.44 40.94 11.88 43.5C12.36 40.9 12.8 39.38 13.32 37.7L17.92 22.26H23.56L28.08 37.7C28.56 39.34 29 41.02 29.48 43.5C30.04 40.78 30.44 39.22 30.88 37.74L35.6 22.26H40.8L31.92 51.5H26.96L20.72 30.22L14.36 51.5H9.32Z" fill="black"/>
<path d="M42.8022 51.5H37.4822L48.0422 22.26H53.2822L63.8422 51.5H58.4422L56.0822 44.74H45.1622L42.8022 51.5ZM50.0022 30.98L46.6822 40.42H54.6022L51.2422 30.98C51.0022 30.22 50.7222 29.34 50.6422 28.74C50.5222 29.3 50.2822 30.18 50.0022 30.98ZM65.5887 60.66V31.74H70.1087L70.4287 34.74C71.6287 32.46 74.2287 31.14 77.2287 31.14C82.7887 31.14 86.4688 35.18 86.4688 41.38C86.4688 47.54 83.1088 52.02 77.2287 52.02C74.2687 52.02 71.7087 50.86 70.4687 48.86V60.66H65.5887ZM70.5087 41.62C70.5087 45.18 72.7087 47.62 76.0687 47.62C79.5087 47.62 81.5487 45.14 81.5487 41.62C81.5487 38.1 79.5087 35.58 76.0687 35.58C72.7087 35.58 70.5087 38.06 70.5087 41.62ZM89.1544 60.66V31.74H93.6744L93.9944 34.74C95.1944 32.46 97.7944 31.14 100.794 31.14C106.354 31.14 110.034 35.18 110.034 41.38C110.034 47.54 106.674 52.02 100.794 52.02C97.8344 52.02 95.2744 50.86 94.0344 48.86V60.66H89.1544ZM94.0744 41.62C94.0744 45.18 96.2744 47.62 99.6344 47.62C103.074 47.62 105.114 45.14 105.114 41.62C105.114 38.1 103.074 35.58 99.6344 35.58C96.2744 35.58 94.0744 38.06 94.0744 41.62ZM125.12 31.66V36.18H123.32C119.8 36.18 117.6 38.06 117.6 41.9V51.5H112.72V31.78H117.32L117.6 34.66C118.44 32.7 120.32 31.38 122.96 31.38C123.64 31.38 124.32 31.46 125.12 31.66ZM135.399 52.02C129.519 52.02 125.399 47.74 125.399 41.62C125.399 35.42 129.439 31.14 135.239 31.14C141.159 31.14 144.919 35.1 144.919 41.26V42.74L130.039 42.78C130.399 46.26 132.239 48.02 135.479 48.02C138.159 48.02 139.919 46.98 140.479 45.1H144.999C144.159 49.42 140.559 52.02 135.399 52.02ZM135.279 35.14C132.399 35.14 130.639 36.7 130.159 39.66H140.079C140.079 36.94 138.199 35.14 135.279 35.14ZM152.505 51.5H147.625V31.74H152.145L152.545 34.3C153.785 32.3 156.185 31.14 158.865 31.14C163.825 31.14 166.385 34.22 166.385 39.34V51.5H161.505V40.5C161.505 37.18 159.865 35.58 157.345 35.58C154.345 35.58 152.505 37.66 152.505 40.86V51.5ZM176.699 51.5H171.819V35.82H168.019V31.74H171.819V25.58H176.699V31.74H180.539V35.82H176.699V51.5ZM184.813 27.78C183.133 27.78 181.813 26.46 181.813 24.82C181.813 23.18 183.133 21.9 184.813 21.9C186.413 21.9 187.733 23.18 187.733 24.82C187.733 26.46 186.413 27.78 184.813 27.78ZM182.373 51.5V31.74H187.253V51.5H182.373ZM189.935 41.58C189.935 35.46 193.975 31.14 199.815 31.14C205.215 31.14 208.895 34.14 209.415 38.9H204.535C203.975 36.66 202.335 35.5 200.015 35.5C196.895 35.5 194.815 37.86 194.815 41.58C194.815 45.3 196.735 47.62 199.855 47.62C202.295 47.62 204.015 46.42 204.535 44.26H209.455C208.855 48.86 205.015 52.02 199.855 52.02C193.855 52.02 189.935 47.86 189.935 41.58ZM220.727 52.02C214.847 52.02 210.727 47.74 210.727 41.62C210.727 35.42 214.767 31.14 220.567 31.14C226.487 31.14 230.247 35.1 230.247 41.26V42.74L215.367 42.78C215.727 46.26 217.567 48.02 220.807 48.02C223.487 48.02 225.247 46.98 225.807 45.1H230.327C229.487 49.42 225.887 52.02 220.727 52.02ZM220.607 35.14C217.727 35.14 215.967 36.7 215.487 39.66H225.407C225.407 36.94 223.527 35.14 220.607 35.14Z" fill="#5865F2"/>
</svg>
